<svg version="1.1" viewBox="0.0 0.0 1035.259842519685 975.9553805774278" fill="none" stroke="none" stroke-linecap="square" stroke-miterlimit="10" xmlns:xlink="http://www.w3.org/1999/xlink" xmlns="http://www.w3.org/2000/svg"><clipPath id="p.0"><path d="m0 0l1035.2599 0l0 975.9554l-1035.2599 0l0 -975.9554z" clip-rule="nonzero"/></clipPath><g clip-path="url(#p.0)"><path fill="#000000" fill-opacity="0.0" d="m0 0l1035.2599 0l0 975.9554l-1035.2599 0z" fill-rule="evenodd"/><path fill="#000000" fill-opacity="0.0" d="m0 0l1035.2756 0l0 975.9685l-1035.2756 0z" fill-rule="evenodd"/><path fill="#000000" d="m191.02582 80.49362q0 10.9375 -4.4375 20.28125q-4.421875 9.34375 -12.203125 14.546875q-7.78125 5.203125 -16.6875 5.203125q-13.21875 0 -23.28125 -11.21875q-10.0625 -11.234375 -10.0625 -28.8125q0 -17.640625 10.0625 -28.828125q10.0625 -11.203125 23.28125 -11.203125q8.90625 0 16.65625 5.203125q7.75 5.203125 12.203125 14.515625q4.46875 9.3125 4.46875 20.3125zm-5.53125 0q0 -13.34375 -7.75 -23.953125q-7.75 -10.609375 -20.046875 -10.609375q-11.53125 0 -19.703125 10.125q-8.171875 10.109375 -8.171875 24.4375q0 15.234375 8.5625 24.90625q8.5625 9.671875 19.3125 9.671875q12.296875 0 20.046875 -10.578125q7.75 -10.59375 7.75 -24.0zm85.54114 0q0 10.9375 -4.4375 20.28125q-4.421875 9.34375 -12.20311 14.546875q-7.78125 5.203125 -16.6875 5.203125q-13.21875 0 -23.28125 -11.21875q-10.0625 -11.234375 -10.0625 -28.8125q0 -17.640625 10.0625 -28.828125q10.0625 -11.203125 23.28125 -11.203125q8.90625 0 16.65625 5.203125q7.7499847 5.203125 12.20311 14.515625q4.46875 9.3125 4.46875 20.3125zm-5.53125 0q0 -13.34375 -7.75 -23.953125q-7.7499847 -10.609375 -20.04686 -10.609375q-11.53125 0 -19.703125 10.125q-8.171875 10.109375 -8.171875 24.4375q0 15.234375 8.5625 24.90625q8.5625 9.671875 19.3125 9.671875q12.296875 0 20.04686 -10.578125q7.75 -10.59375 7.75 -24.0zm80.00992 -3.703125l0 7.8125l-55.796875 0l0 -7.8125l55.796875 0zm85.54117 3.703125q0 10.9375 -4.4375 20.28125q-4.421875 9.34375 -12.203125 14.546875q-7.78125 5.203125 -16.6875 5.203125q-13.21875 0 -23.28125 -11.21875q-10.0625 -11.234375 -10.0625 -28.8125q0 -17.640625 10.0625 -28.828125q10.0625 -11.203125 23.28125 -11.203125q8.90625 0 16.65625 5.203125q7.75 5.203125 12.203125 14.515625q4.46875 9.3125 4.46875 20.3125zm-5.53125 0q0 -13.34375 -7.75 -23.953125q-7.75 -10.609375 -20.046875 -10.609375q-11.53125 0 -19.703125 10.125q-8.171875 10.109375 -8.171875 24.4375q0 15.234375 8.5625 24.90625q8.5625 9.671875 19.3125 9.671875q12.296875 0 20.046875 -10.578125q7.75 -10.59375 7.75 -24.0zm80.00989 -3.703125l0 7.8125l-55.796875 0l0 -7.8125l55.796875 0zm80.00989 0l0 7.8125l-55.796875 0l0 -7.8125l55.796875 0zm85.54114 3.703125q0 10.9375 -4.4375 20.28125q-4.421875 9.34375 -12.203125 14.546875q-7.78125 5.203125 -16.6875 5.203125q-13.21875 0 -23.28125 -11.21875q-10.0625 -11.234375 -10.0625 -28.8125q0 -17.640625 10.0625 -28.828125q10.0625 -11.203125 23.28125 -11.203125q8.90625 0 16.65625 5.203125q7.75 5.203125 12.203125 14.515625q4.46875 9.3125 4.46875 20.3125zm-5.53125 0q0 -13.34375 -7.75 -23.953125q-7.75 -10.609375 -20.046875 -10.609375q-11.53125 0 -19.703125 10.125q-8.171875 10.109375 -8.171875 24.4375q0 15.234375 8.5625 24.90625q8.5625 9.671875 19.3125 9.671875q12.296875 0 20.046875 -10.578125q7.75 -10.59375 7.75 -24.0zm85.54114 0q0 10.9375 -4.4375 20.28125q-4.421875 9.34375 -12.203125 14.546875q-7.78125 5.203125 -16.6875 5.203125q-13.21875 0 -23.28125 -11.21875q-10.0625 -11.234375 -10.0625 -28.8125q0 -17.640625 10.0625 -28.828125q10.0625 -11.203125 23.28125 -11.203125q8.90625 0 16.65625 5.203125q7.75 5.203125 12.203125 14.515625q4.46875 9.3125 4.46875 20.3125zm-5.53125 0q0 -13.34375 -7.75 -23.953125q-7.75 -10.609375 -20.046875 -10.609375q-11.53125 0 -19.703125 10.125q-8.171875 10.109375 -8.171875 24.4375q0 15.234375 8.5625 24.90625q8.5625 9.671875 19.3125 9.671875q12.296875 0 20.046875 -10.578125q7.75 -10.59375 7.75 -24.0zm85.54114 0q0 10.9375 -4.4375 20.28125q-4.421875 9.34375 -12.203125 14.546875q-7.78125 5.203125 -16.6875 5.203125q-13.21875 0 -23.28125 -11.21875q-10.0625 -11.234375 -10.0625 -28.8125q0 -17.640625 10.0625 -28.828125q10.0625 -11.203125 23.28125 -11.203125q8.90625 0 16.65625 5.203125q7.75 5.203125 12.203125 14.515625q4.46875 9.3125 4.46875 20.3125zm-5.53125 0q0 -13.34375 -7.75 -23.953125q-7.75 -10.609375 -20.046875 -10.609375q-11.53125 0 -19.703125 10.125q-8.171875 10.109375 -8.171875 24.4375q0 15.234375 8.5625 24.90625q8.5625 9.671875 19.3125 9.671875q12.296875 0 20.046875 -10.578125q7.75 -10.59375 7.75 -24.0zm85.54114 0q0 10.9375 -4.4375 20.28125q-4.421875 9.34375 -12.203125 14.546875q-7.78125 5.203125 -16.6875 5.203125q-13.21875 0 -23.28125 -11.21875q-10.0625 -11.234375 -10.0625 -28.8125q0 -17.640625 10.0625 -28.828125q10.0625 -11.203125 23.28125 -11.203125q8.90625 0 16.65625 5.203125q7.75 5.203125 12.203125 14.515625q4.46875 9.3125 4.46875 20.3125zm-5.53125 0q0 -13.34375 -7.75 -23.953125q-7.75 -10.609375 -20.046875 -10.609375q-11.53125 0 -19.703125 10.125q-8.171875 10.109375 -8.171875 24.4375q0 15.234375 8.5625 24.90625q8.5625 9.671875 19.3125 9.671875q12.296875 0 20.046875 -10.578125q7.75 -10.59375 7.75 -24.0z" fill-rule="nonzero"/><path fill="#000000" d="m185.49457 164.7905l0 7.8125l-55.796875 0l0 -7.8125l55.796875 0zm80.00989 0l0 7.8125l-55.79686 0l0 -7.8125l55.79686 0zm80.00992 0l0 7.8125l-55.796875 0l0 -7.8125l55.796875 0zm85.54117 3.703125q0 10.9375 -4.4375 20.28125q-4.421875 9.34375 -12.203125 14.546875q-7.78125 5.203125 -16.6875 5.203125q-13.21875 0 -23.28125 -11.21875q-10.0625 -11.234375 -10.0625 -28.8125q0 -17.640625 10.0625 -28.828125q10.0625 -11.203125 23.28125 -11.203125q8.90625 0 16.65625 5.203125q7.75 5.203125 12.203125 14.515625q4.46875 9.3125 4.46875 20.3125zm-5.53125 0q0 -13.34375 -7.75 -23.953125q-7.75 -10.609375 -20.046875 -10.609375q-11.53125 0 -19.703125 10.125q-8.171875 10.109375 -8.171875 24.4375q0 15.234375 8.5625 24.90625q8.5625 9.671875 19.3125 9.671875q12.296875 0 20.046875 -10.578125q7.75 -10.59375 7.75 -24.0zm80.00989 -3.703125l0 7.8125l-55.796875 0l0 -7.8125l55.796875 0zm80.00989 0l0 7.8125l-55.796875 0l0 -7.8125l55.796875 0zm80.00989 0l0 7.8125l-55.796875 0l0 -7.8125l55.796875 0zm80.00989 0l0 7.8125l-55.796875 0l0 -7.8125l55.796875 0zm80.00989 0l0 7.8125l-55.796875 0l0 -7.8125l55.796875 0zm80.00989 0l0 7.8125l-55.796875 0l0 -7.8125l55.796875 0z" fill-rule="nonzero"/><path fill="#000000" d="m191.02582 256.49362q0 10.9375 -4.4375 20.28125q-4.421875 9.34375 -12.203125 14.546875q-7.78125 5.203125 -16.6875 5.203125q-13.21875 0 -23.28125 -11.21875q-10.0625 -11.234375 -10.0625 -28.8125q0 -17.640625 10.0625 -28.828125q10.0625 -11.203125 23.28125 -11.203125q8.90625 0 16.65625 5.203125q7.75 5.203125 12.203125 14.515625q4.46875 9.3125 4.46875 20.3125zm-5.53125 0q0 -13.34375 -7.75 -23.953125q-7.75 -10.609375 -20.046875 -10.609375q-11.53125 0 -19.703125 10.125q-8.171875 10.109375 -8.171875 24.4375q0 15.234375 8.5625 24.90625q8.5625 9.671875 19.3125 9.671875q12.296875 0 20.046875 -10.578125q7.75 -10.59375 7.75 -24.0zm80.00989 -3.703125l0 7.8125l-55.79686 0l0 -7.8125l55.79686 0zm80.00992 0l0 7.8125l-55.796875 0l0 -7.8125l55.796875 0zm85.54117 3.703125q0 10.9375 -4.4375 20.28125q-4.421875 9.34375 -12.203125 14.546875q-7.78125 5.203125 -16.6875 5.203125q-13.21875 0 -23.28125 -11.21875q-10.0625 -11.234375 -10.0625 -28.8125q0 -17.640625 10.0625 -28.828125q10.0625 -11.203125 23.28125 -11.203125q8.90625 0 16.65625 5.203125q7.75 5.203125 12.203125 14.515625q4.46875 9.3125 4.46875 20.3125zm-5.53125 0q0 -13.34375 -7.75 -23.953125q-7.75 -10.609375 -20.046875 -10.609375q-11.53125 0 -19.703125 10.125q-8.171875 10.109375 -8.171875 24.4375q0 15.234375 8.5625 24.90625q8.5625 9.671875 19.3125 9.671875q12.296875 0 20.046875 -10.578125q7.75 -10.59375 7.75 -24.0zm80.00989 -3.703125l0 7.8125l-55.796875 0l0 -7.8125l55.796875 0zm85.54114 3.703125q0 10.9375 -4.4375 20.28125q-4.421875 9.34375 -12.203125 14.546875q-7.78125 5.203125 -16.6875 5.203125q-13.21875 0 -23.28125 -11.21875q-10.0625 -11.234375 -10.0625 -28.8125q0 -17.640625 10.0625 -28.828125q10.0625 -11.203125 23.28125 -11.203125q8.90625 0 16.65625 5.203125q7.75 5.203125 12.203125 14.515625q4.46875 9.3125 4.46875 20.3125zm-5.53125 0q0 -13.34375 -7.75 -23.953125q-7.75 -10.609375 -20.046875 -10.609375q-11.53125 0 -19.703125 10.125q-8.171875 10.109375 -8.171875 24.4375q0 15.234375 8.5625 24.90625q8.5625 9.671875 19.3125 9.671875q12.296875 0 20.046875 -10.578125q7.75 -10.59375 7.75 -24.0zm85.54114 0q0 10.9375 -4.4375 20.28125q-4.421875 9.34375 -12.203125 14.546875q-7.78125 5.203125 -16.6875 5.203125q-13.21875 0 -23.28125 -11.21875q-10.0625 -11.234375 -10.0625 -28.8125q0 -17.640625 10.0625 -28.828125q10.0625 -11.203125 23.28125 -11.203125q8.90625 0 16.65625 5.203125q7.75 5.203125 12.203125 14.515625q4.46875 9.3125 4.46875 20.3125zm-5.53125 0q0 -13.34375 -7.75 -23.953125q-7.75 -10.609375 -20.046875 -10.609375q-11.53125 0 -19.703125 10.125q-8.171875 10.109375 -8.171875 24.4375q0 15.234375 8.5625 24.90625q8.5625 9.671875 19.3125 9.671875q12.296875 0 20.046875 -10.578125q7.75 -10.59375 7.75 -24.0zm85.54114 0q0 10.9375 -4.4375 20.28125q-4.421875 9.34375 -12.203125 14.546875q-7.78125 5.203125 -16.6875 5.203125q-13.21875 0 -23.28125 -11.21875q-10.0625 -11.234375 -10.0625 -28.8125q0 -17.640625 10.0625 -28.828125q10.0625 -11.203125 23.28125 -11.203125q8.90625 0 16.65625 5.203125q7.75 5.203125 12.203125 14.515625q4.46875 9.3125 4.46875 20.3125zm-5.53125 0q0 -13.34375 -7.75 -23.953125q-7.75 -10.609375 -20.046875 -10.609375q-11.53125 0 -19.703125 10.125q-8.171875 10.109375 -8.171875 24.4375q0 15.234375 8.5625 24.90625q8.5625 9.671875 19.3125 9.671875q12.296875 0 20.046875 -10.578125q7.75 -10.59375 7.75 -24.0zm80.00989 -3.703125l0 7.8125l-55.796875 0l0 -7.8125l55.796875 0zm85.54114 3.703125q0 10.9375 -4.4375 20.28125q-4.421875 9.34375 -12.203125 14.546875q-7.78125 5.203125 -16.6875 5.203125q-13.21875 0 -23.28125 -11.21875q-10.0625 -11.234375 -10.0625 -28.8125q0 -17.640625 10.0625 -28.828125q10.0625 -11.203125 23.28125 -11.203125q8.90625 0 16.65625 5.203125q7.75 5.203125 12.203125 14.515625q4.46875 9.3125 4.46875 20.3125zm-5.53125 0q0 -13.34375 -7.75 -23.953125q-7.75 -10.609375 -20.046875 -10.609375q-11.53125 0 -19.703125 10.125q-8.171875 10.109375 -8.171875 24.4375q0 15.234375 8.5625 24.90625q8.5625 9.671875 19.3125 9.671875q12.296875 0 20.046875 -10.578125q7.75 -10.59375 7.75 -24.0z" fill-rule="nonzero"/><path fill="#000000" d="m191.02582 344.49362q0 10.9375 -4.4375 20.28125q-4.421875 9.34375 -12.203125 14.546875q-7.78125 5.203125 -16.6875 5.203125q-13.21875 0 -23.28125 -11.21875q-10.0625 -11.234375 -10.0625 -28.8125q0 -17.640625 10.0625 -28.828125q10.0625 -11.203125 23.28125 -11.203125q8.90625 0 16.65625 5.203125q7.75 5.203125 12.203125 14.515625q4.46875 9.3125 4.46875 20.3125zm-5.53125 0q0 -13.34375 -7.75 -23.953125q-7.75 -10.609375 -20.046875 -10.609375q-11.53125 0 -19.703125 10.125q-8.171875 10.109375 -8.171875 24.4375q0 15.234375 8.5625 24.90625q8.5625 9.671875 19.3125 9.671875q12.296875 0 20.046875 -10.578125q7.75 -10.59375 7.75 -24.0zm80.00989 -3.703125l0 7.8125l-55.79686 0l0 -7.8125l55.79686 0zm55.400543 2.59375l25.96875 33.53125l2.078125 0q1.953125 0 2.796875 0.75q0.859375 0.75 0.859375 1.984375q0 1.171875 -0.859375 1.953125q-0.84375 0.78125 -2.796875 0.78125l-17.5625 0q-1.953125 0 -2.8125 -0.78125q-0.84375 -0.78125 -0.84375 -1.953125q0 -1.234375 0.84375 -1.984375q0.859375 -0.75 2.8125 -0.75l8.71875 0l-22.59375 -29.03125l-22.328125 29.03125l8.71875 0q1.953125 0 2.796875 0.75q0.859375 0.75 0.859375 1.984375q0 1.171875 -0.859375 1.953125q-0.84375 0.78125 -2.796875 0.78125l-17.4375 0q-1.953125 0 -2.8125 -0.78125q-0.84375 -0.78125 -0.84375 -1.953125q0 -0.90625 0.515625 -1.625q0.53125 -0.71875 1.171875 -0.90625q0.65625 -0.203125 3.984375 -0.203125l25.640625 -33.53125l-24.46875 -31.703125l-2.015625 0q-1.953125 0 -2.8125 -0.75q-0.84375 -0.75 -0.84375 -1.984375q0 -1.234375 0.84375 -1.984375q0.859375 -0.75 2.8125 -0.75l14.90625 0q2.015625 0 2.859375 0.75q0.84375 0.75 0.84375 1.984375q0 1.234375 -0.84375 1.984375q-0.84375 0.75 -2.859375 0.75l-6.125 0l21.09375 27.28125l20.96875 -27.28125l-6.125 0q-2.015625 0 -2.859375 -0.75q-0.84375 -0.75 -0.84375 -1.984375q0 -1.234375 0.84375 -1.984375q0.84375 -0.75 2.859375 -0.75l14.96875 0q1.953125 0 2.796875 0.75q0.859375 0.75 0.859375 1.984375q0 1.234375 -0.859375 1.984375q-0.84375 0.75 -2.796875 0.75l-2.078125 0l-24.34375 31.703125zm104.61929 -2.59375l0 7.8125l-55.796875 0l0 -7.8125l55.796875 0zm80.00989 0l0 7.8125l-55.796875 0l0 -7.8125l55.796875 0zm80.00989 0l0 7.8125l-55.796875 0l0 -7.8125l55.796875 0zm80.00989 0l0 7.8125l-55.796875 0l0 -7.8125l55.796875 0zm80.00989 0l0 7.8125l-55.796875 0l0 -7.8125l55.796875 0zm80.00989 0l0 7.8125l-55.796875 0l0 -7.8125l55.796875 0zm85.54114 3.703125q0 10.9375 -4.4375 20.28125q-4.421875 9.34375 -12.203125 14.546875q-7.78125 5.203125 -16.6875 5.203125q-13.21875 0 -23.28125 -11.21875q-10.0625 -11.234375 -10.0625 -28.8125q0 -17.640625 10.0625 -28.828125q10.0625 -11.203125 23.28125 -11.203125q8.90625 0 16.65625 5.203125q7.75 5.203125 12.203125 14.515625q4.46875 9.3125 4.46875 20.3125zm-5.53125 0q0 -13.34375 -7.75 -23.953125q-7.75 -10.609375 -20.046875 -10.609375q-11.53125 0 -19.703125 10.125q-8.171875 10.109375 -8.171875 24.4375q0 15.234375 8.5625 24.90625q8.5625 9.671875 19.3125 9.671875q12.296875 0 20.046875 -10.578125q7.75 -10.59375 7.75 -24.0z" fill-rule="nonzero"/><path fill="#000000" d="m191.02582 432.49362q0 10.9375 -4.4375 20.28125q-4.421875 9.34375 -12.203125 14.546875q-7.78125 5.203125 -16.6875 5.203125q-13.21875 0 -23.28125 -11.21875q-10.0625 -11.234375 -10.0625 -28.8125q0 -17.640625 10.0625 -28.828125q10.0625 -11.203125 23.28125 -11.203125q8.90625 0 16.65625 5.203125q7.75 5.203125 12.203125 14.515625q4.46875 9.3125 4.46875 20.3125zm-5.53125 0q0 -13.34375 -7.75 -23.953125q-7.75 -10.609375 -20.046875 -10.609375q-11.53125 0 -19.703125 10.125q-8.171875 10.109375 -8.171875 24.4375q0 15.234375 8.5625 24.90625q8.5625 9.671875 19.3125 9.671875q12.296875 0 20.046875 -10.578125q7.75 -10.59375 7.75 -24.0zm80.00989 -3.703125l0 7.8125l-55.79686 0l0 -7.8125l55.79686 0zm80.00992 0l0 7.8125l-55.796875 0l0 -7.8125l55.796875 0zm80.00992 0l0 7.8125l-55.796875 0l0 -7.8125l55.796875 0zm80.00989 0l0 7.8125l-55.796875 0l0 -7.8125l55.796875 0zm55.400513 2.59375l25.96875 33.53125l2.078125 0q1.953125 0 2.796875 0.75q0.859375 0.75 0.859375 1.984375q0 1.171875 -0.859375 1.953125q-0.84375 0.78125 -2.796875 0.78125l-17.5625 0q-1.953125 0 -2.8125 -0.78125q-0.84375 -0.78125 -0.84375 -1.953125q0 -1.234375 0.84375 -1.984375q0.859375 -0.75 2.8125 -0.75l8.71875 0l-22.59375 -29.03125l-22.328125 29.03125l8.71875 0q1.953125 0 2.796875 0.75q0.859375 0.75 0.859375 1.984375q0 1.171875 -0.859375 1.953125q-0.84375 0.78125 -2.796875 0.78125l-17.4375 0q-1.953125 0 -2.8125 -0.78125q-0.84375 -0.78125 -0.84375 -1.953125q0 -0.90625 0.515625 -1.625q0.53125 -0.71875 1.171875 -0.90625q0.65625 -0.203125 3.984375 -0.203125l25.640625 -33.53125l-24.46875 -31.703125l-2.015625 0q-1.953125 0 -2.8125 -0.75q-0.84375 -0.75 -0.84375 -1.984375q0 -1.234375 0.84375 -1.984375q0.859375 -0.75 2.8125 -0.75l14.90625 0q2.015625 0 2.859375 0.75q0.84375 0.75 0.84375 1.984375q0 1.234375 -0.84375 1.984375q-0.84375 0.75 -2.859375 0.75l-6.125 0l21.09375 27.28125l20.96875 -27.28125l-6.125 0q-2.015625 0 -2.859375 -0.75q-0.84375 -0.75 -0.84375 -1.984375q0 -1.234375 0.84375 -1.984375q0.84375 -0.75 2.859375 -0.75l14.96875 0q1.953125 0 2.796875 0.75q0.859375 0.75 0.859375 1.984375q0 1.234375 -0.859375 1.984375q-0.84375 0.75 -2.796875 0.75l-2.078125 0l-24.34375 31.703125zm80.00989 0l25.96875 33.53125l2.078125 0q1.953125 0 2.796875 0.75q0.859375 0.75 0.859375 1.984375q0 1.171875 -0.859375 1.953125q-0.84375 0.78125 -2.796875 0.78125l-17.5625 0q-1.953125 0 -2.8125 -0.78125q-0.84375 -0.78125 -0.84375 -1.953125q0 -1.234375 0.84375 -1.984375q0.859375 -0.75 2.8125 -0.75l8.71875 0l-22.59375 -29.03125l-22.328125 29.03125l8.71875 0q1.953125 0 2.796875 0.75q0.859375 0.75 0.859375 1.984375q0 1.171875 -0.859375 1.953125q-0.84375 0.78125 -2.796875 0.78125l-17.4375 0q-1.953125 0 -2.8125 -0.78125q-0.84375 -0.78125 -0.84375 -1.953125q0 -0.90625 0.515625 -1.625q0.53125 -0.71875 1.171875 -0.90625q0.65625 -0.203125 3.984375 -0.203125l25.640625 -33.53125l-24.46875 -31.703125l-2.015625 0q-1.953125 0 -2.8125 -0.75q-0.84375 -0.75 -0.84375 -1.984375q0 -1.234375 0.84375 -1.984375q0.859375 -0.75 2.8125 -0.75l14.90625 0q2.015625 0 2.859375 0.75q0.84375 0.75 0.84375 1.984375q0 1.234375 -0.84375 1.984375q-0.84375 0.75 -2.859375 0.75l-6.125 0l21.09375 27.28125l20.96875 -27.28125l-6.125 0q-2.015625 0 -2.859375 -0.75q-0.84375 -0.75 -0.84375 -1.984375q0 -1.234375 0.84375 -1.984375q0.84375 -0.75 2.859375 -0.75l14.96875 0q1.953125 0 2.796875 0.75q0.859375 0.75 0.859375 1.984375q0 1.234375 -0.859375 1.984375q-0.84375 0.75 -2.796875 0.75l-2.078125 0l-24.34375 31.703125zm104.61926 -2.59375l0 7.8125l-55.796875 0l0 -7.8125l55.796875 0zm80.00989 0l0 7.8125l-55.796875 0l0 -7.8125l55.796875 0zm80.00989 0l0 7.8125l-55.796875 0l0 -7.8125l55.796875 0z" fill-rule="nonzero"/><path fill="#000000" d="m191.02582 520.49365q0 10.9375 -4.4375 20.28125q-4.421875 9.34375 -12.203125 14.546875q-7.78125 5.203125 -16.6875 5.203125q-13.21875 0 -23.28125 -11.21875q-10.0625 -11.234375 -10.0625 -28.8125q0 -17.640625 10.0625 -28.828125q10.0625 -11.203125 23.28125 -11.203125q8.90625 0 16.65625 5.203125q7.75 5.203125 12.203125 14.515625q4.46875 9.3125 4.46875 20.3125zm-5.53125 0q0 -13.34375 -7.75 -23.953125q-7.75 -10.609375 -20.046875 -10.609375q-11.53125 0 -19.703125 10.125q-8.171875 10.109375 -8.171875 24.4375q0 15.234375 8.5625 24.90625q8.5625 9.671875 19.3125 9.671875q12.296875 0 20.046875 -10.578125q7.75 -10.59375 7.75 -24.0zm55.400528 -1.109375l25.968735 33.53125l2.078125 0q1.953125 0 2.796875 0.75q0.859375 0.75 0.859375 1.984375q0 1.171875 -0.859375 1.953125q-0.84375 0.78125 -2.796875 0.78125l-17.562485 0q-1.953125 0 -2.8125 -0.78125q-0.84375 -0.78125 -0.84375 -1.953125q0 -1.234375 0.84375 -1.984375q0.859375 -0.75 2.8125 -0.75l8.718735 0l-22.593735 -29.03125l-22.328125 29.03125l8.71875 0q1.953125 0 2.796875 0.75q0.859375 0.75 0.859375 1.984375q0 1.171875 -0.859375 1.953125q-0.84375 0.78125 -2.796875 0.78125l-17.4375 0q-1.953125 0 -2.8125 -0.78125q-0.84375 -0.78125 -0.84375 -1.953125q0 -0.90625 0.515625 -1.625q0.53125 -0.71875 1.171875 -0.90625q0.65625 -0.203125 3.984375 -0.203125l25.640625 -33.53125l-24.46875 -31.703125l-2.015625 0q-1.953125 0 -2.8125 -0.75q-0.84375 -0.75 -0.84375 -1.984375q0 -1.234375 0.84375 -1.984375q0.859375 -0.75 2.8125 -0.75l14.90625 0q2.015625 0 2.859375 0.75q0.84375 0.75 0.84375 1.984375q0 1.234375 -0.84375 1.984375q-0.84375 0.75 -2.859375 0.75l-6.125 0l21.09375 27.28125l20.968735 -27.28125l-6.1249847 0q-2.015625 0 -2.859375 -0.75q-0.84375 -0.75 -0.84375 -1.984375q0 -1.234375 0.84375 -1.984375q0.84375 -0.75 2.859375 -0.75l14.968735 0q1.953125 0 2.796875 0.75q0.859375 0.75 0.859375 1.984375q0 1.234375 -0.859375 1.984375q-0.84375 0.75 -2.796875 0.75l-2.078125 0l-24.343735 31.703125zm104.61928 -2.59375l0 7.8125l-55.796875 0l0 -7.8125l55.796875 0zm80.00992 0l0 7.8125l-55.796875 0l0 -7.8125l55.796875 0zm80.00989 0l0 7.8125l-55.796875 0l0 -7.8125l55.796875 0zm85.54114 3.703125q0 10.9375 -4.4375 20.28125q-4.421875 9.34375 -12.203125 14.546875q-7.78125 5.203125 -16.6875 5.203125q-13.21875 0 -23.28125 -11.21875q-10.0625 -11.234375 -10.0625 -28.8125q0 -17.640625 10.0625 -28.828125q10.0625 -11.203125 23.28125 -11.203125q8.90625 0 16.65625 5.203125q7.75 5.203125 12.203125 14.515625q4.46875 9.3125 4.46875 20.3125zm-5.53125 0q0 -13.34375 -7.75 -23.953125q-7.75 -10.609375 -20.046875 -10.609375q-11.53125 0 -19.703125 10.125q-8.171875 10.109375 -8.171875 24.4375q0 15.234375 8.5625 24.90625q8.5625 9.671875 19.3125 9.671875q12.296875 0 20.046875 -10.578125q7.75 -10.59375 7.75 -24.0zm80.00989 -3.703125l0 7.8125l-55.796875 0l0 -7.8125l55.796875 0zm55.400513 2.59375l25.96875 33.53125l2.078125 0q1.953125 0 2.796875 0.75q0.859375 0.75 0.859375 1.984375q0 1.171875 -0.859375 1.953125q-0.84375 0.78125 -2.796875 0.78125l-17.5625 0q-1.953125 0 -2.8125 -0.78125q-0.84375 -0.78125 -0.84375 -1.953125q0 -1.234375 0.84375 -1.984375q0.859375 -0.75 2.8125 -0.75l8.71875 0l-22.59375 -29.03125l-22.328125 29.03125l8.71875 0q1.953125 0 2.796875 0.75q0.859375 0.75 0.859375 1.984375q0 1.171875 -0.859375 1.953125q-0.84375 0.78125 -2.796875 0.78125l-17.4375 0q-1.953125 0 -2.8125 -0.78125q-0.84375 -0.78125 -0.84375 -1.953125q0 -0.90625 0.515625 -1.625q0.53125 -0.71875 1.171875 -0.90625q0.65625 -0.203125 3.984375 -0.203125l25.640625 -33.53125l-24.46875 -31.703125l-2.015625 0q-1.953125 0 -2.8125 -0.75q-0.84375 -0.75 -0.84375 -1.984375q0 -1.234375 0.84375 -1.984375q0.859375 -0.75 2.8125 -0.75l14.90625 0q2.015625 0 2.859375 0.75q0.84375 0.75 0.84375 1.984375q0 1.234375 -0.84375 1.984375q-0.84375 0.75 -2.859375 0.75l-6.125 0l21.09375 27.28125l20.96875 -27.28125l-6.125 0q-2.015625 0 -2.859375 -0.75q-0.84375 -0.75 -0.84375 -1.984375q0 -1.234375 0.84375 -1.984375q0.84375 -0.75 2.859375 -0.75l14.96875 0q1.953125 0 2.796875 0.75q0.859375 0.75 0.859375 1.984375q0 1.234375 -0.859375 1.984375q-0.84375 0.75 -2.796875 0.75l-2.078125 0l-24.34375 31.703125zm104.61926 -2.59375l0 7.8125l-55.796875 0l0 -7.8125l55.796875 0zm85.54114 3.703125q0 10.9375 -4.4375 20.28125q-4.421875 9.34375 -12.203125 14.546875q-7.78125 5.203125 -16.6875 5.203125q-13.21875 0 -23.28125 -11.21875q-10.0625 -11.234375 -10.0625 -28.8125q0 -17.640625 10.0625 -28.828125q10.0625 -11.203125 23.28125 -11.203125q8.90625 0 16.65625 5.203125q7.75 5.203125 12.203125 14.515625q4.46875 9.3125 4.46875 20.3125zm-5.53125 0q0 -13.34375 -7.75 -23.953125q-7.75 -10.609375 -20.046875 -10.609375q-11.53125 0 -19.703125 10.125q-8.171875 10.109375 -8.171875 24.4375q0 15.234375 8.5625 24.90625q8.5625 9.671875 19.3125 9.671875q12.296875 0 20.046875 -10.578125q7.75 -10.59375 7.75 -24.0z" fill-rule="nonzero"/><path fill="#000000" d="m185.49457 604.7905l0 7.8125l-55.796875 0l0 -7.8125l55.796875 0zm80.00989 0l0 7.8125l-55.79686 0l0 -7.8125l55.79686 0zm80.00992 0l0 7.8125l-55.796875 0l0 -7.8125l55.796875 0zm55.400543 2.59375l25.96875 33.53125l2.078125 0q1.953125 0 2.796875 0.75q0.859375 0.75 0.859375 1.984375q0 1.171875 -0.859375 1.953125q-0.84375 0.78125 -2.796875 0.78125l-17.5625 0q-1.953125 0 -2.8125 -0.78125q-0.84375 -0.78125 -0.84375 -1.953125q0 -1.234375 0.84375 -1.984375q0.859375 -0.75 2.8125 -0.75l8.71875 0l-22.59375 -29.03125l-22.328125 29.03125l8.71875 0q1.953125 0 2.796875 0.75q0.859375 0.75 0.859375 1.984375q0 1.171875 -0.859375 1.953125q-0.84375 0.78125 -2.796875 0.78125l-17.4375 0q-1.953125 0 -2.8125 -0.78125q-0.84375 -0.78125 -0.84375 -1.953125q0 -0.90625 0.515625 -1.625q0.53125 -0.71875 1.171875 -0.90625q0.65625 -0.203125 3.984375 -0.203125l25.640625 -33.53125l-24.46875 -31.703125l-2.015625 0q-1.953125 0 -2.8125 -0.75q-0.84375 -0.75 -0.84375 -1.984375q0 -1.234375 0.84375 -1.984375q0.859375 -0.75 2.8125 -0.75l14.90625 0q2.015625 0 2.859375 0.75q0.84375 0.75 0.84375 1.984375q0 1.234375 -0.84375 1.984375q-0.84375 0.75 -2.859375 0.75l-6.125 0l21.09375 27.28125l20.96875 -27.28125l-6.125 0q-2.015625 0 -2.859375 -0.75q-0.84375 -0.75 -0.84375 -1.984375q0 -1.234375 0.84375 -1.984375q0.84375 -0.75 2.859375 -0.75l14.96875 0q1.953125 0 2.796875 0.75q0.859375 0.75 0.859375 1.984375q0 1.234375 -0.859375 1.984375q-0.84375 0.75 -2.796875 0.75l-2.078125 0l-24.34375 31.703125zm104.61926 -2.59375l0 7.8125l-55.796875 0l0 -7.8125l55.796875 0zm85.54114 3.703125q0 10.9375 -4.4375 20.28125q-4.421875 9.34375 -12.203125 14.546875q-7.78125 5.203125 -16.6875 5.203125q-13.21875 0 -23.28125 -11.21875q-10.0625 -11.234375 -10.0625 -28.8125q0 -17.640625 10.0625 -28.828125q10.0625 -11.203125 23.28125 -11.203125q8.90625 0 16.65625 5.203125q7.75 5.203125 12.203125 14.515625q4.46875 9.3125 4.46875 20.3125zm-5.53125 0q0 -13.34375 -7.75 -23.953125q-7.75 -10.609375 -20.046875 -10.609375q-11.53125 0 -19.703125 10.125q-8.171875 10.109375 -8.171875 24.4375q0 15.234375 8.5625 24.90625q8.5625 9.671875 19.3125 9.671875q12.296875 0 20.046875 -10.578125q7.75 -10.59375 7.75 -24.0zm80.00989 -3.703125l0 7.8125l-55.796875 0l0 -7.8125l55.796875 0zm80.00989 0l0 7.8125l-55.796875 0l0 -7.8125l55.796875 0zm80.00989 0l0 7.8125l-55.796875 0l0 -7.8125l55.796875 0zm85.54114 3.703125q0 10.9375 -4.4375 20.28125q-4.421875 9.34375 -12.203125 14.546875q-7.78125 5.203125 -16.6875 5.203125q-13.21875 0 -23.28125 -11.21875q-10.0625 -11.234375 -10.0625 -28.8125q0 -17.640625 10.0625 -28.828125q10.0625 -11.203125 23.28125 -11.203125q8.90625 0 16.65625 5.203125q7.75 5.203125 12.203125 14.515625q4.46875 9.3125 4.46875 20.3125zm-5.53125 0q0 -13.34375 -7.75 -23.953125q-7.75 -10.609375 -20.046875 -10.609375q-11.53125 0 -19.703125 10.125q-8.171875 10.109375 -8.171875 24.4375q0 15.234375 8.5625 24.90625q8.5625 9.671875 19.3125 9.671875q12.296875 0 20.046875 -10.578125q7.75 -10.59375 7.75 -24.0z" fill-rule="nonzero"/><path fill="#000000" d="m191.02582 696.49365q0 10.9375 -4.4375 20.28125q-4.421875 9.34375 -12.203125 14.546875q-7.78125 5.203125 -16.6875 5.203125q-13.21875 0 -23.28125 -11.21875q-10.0625 -11.234375 -10.0625 -28.8125q0 -17.640625 10.0625 -28.828125q10.0625 -11.203125 23.28125 -11.203125q8.90625 0 16.65625 5.203125q7.75 5.203125 12.203125 14.515625q4.46875 9.3125 4.46875 20.3125zm-5.53125 0q0 -13.34375 -7.75 -23.953125q-7.75 -10.609375 -20.046875 -10.609375q-11.53125 0 -19.703125 10.125q-8.171875 10.109375 -8.171875 24.4375q0 15.234375 8.5625 24.90625q8.5625 9.671875 19.3125 9.671875q12.296875 0 20.046875 -10.578125q7.75 -10.59375 7.75 -24.0zm85.54114 0q0 10.9375 -4.4375 20.28125q-4.421875 9.34375 -12.20311 14.546875q-7.78125 5.203125 -16.6875 5.203125q-13.21875 0 -23.28125 -11.21875q-10.0625 -11.234375 -10.0625 -28.8125q0 -17.640625 10.0625 -28.828125q10.0625 -11.203125 23.28125 -11.203125q8.90625 0 16.65625 5.203125q7.7499847 5.203125 12.20311 14.515625q4.46875 9.3125 4.46875 20.3125zm-5.53125 0q0 -13.34375 -7.75 -23.953125q-7.7499847 -10.609375 -20.04686 -10.609375q-11.53125 0 -19.703125 10.125q-8.171875 10.109375 -8.171875 24.4375q0 15.234375 8.5625 24.90625q8.5625 9.671875 19.3125 9.671875q12.296875 0 20.04686 -10.578125q7.75 -10.59375 7.75 -24.0zm80.00992 -3.703125l0 7.8125l-55.796875 0l0 -7.8125l55.796875 0zm80.00992 0l0 7.8125l-55.796875 0l0 -7.8125l55.796875 0zm80.00989 0l0 7.8125l-55.796875 0l0 -7.8125l55.796875 0zm80.00989 0l0 7.8125l-55.796875 0l0 -7.8125l55.796875 0zm80.00989 0l0 7.8125l-55.796875 0l0 -7.8125l55.796875 0zm55.400513 2.59375l25.96875 33.53125l2.078125 0q1.953125 0 2.796875 0.75q0.859375 0.75 0.859375 1.984375q0 1.171875 -0.859375 1.953125q-0.84375 0.78125 -2.796875 0.78125l-17.5625 0q-1.953125 0 -2.8125 -0.78125q-0.84375 -0.78125 -0.84375 -1.953125q0 -1.234375 0.84375 -1.984375q0.859375 -0.75 2.8125 -0.75l8.71875 0l-22.59375 -29.03125l-22.328125 29.03125l8.71875 0q1.953125 0 2.796875 0.75q0.859375 0.75 0.859375 1.984375q0 1.171875 -0.859375 1.953125q-0.84375 0.78125 -2.796875 0.78125l-17.4375 0q-1.953125 0 -2.8125 -0.78125q-0.84375 -0.78125 -0.84375 -1.953125q0 -0.90625 0.515625 -1.625q0.53125 -0.71875 1.171875 -0.90625q0.65625 -0.203125 3.984375 -0.203125l25.640625 -33.53125l-24.46875 -31.703125l-2.015625 0q-1.953125 0 -2.8125 -0.75q-0.84375 -0.75 -0.84375 -1.984375q0 -1.234375 0.84375 -1.984375q0.859375 -0.75 2.8125 -0.75l14.90625 0q2.015625 0 2.859375 0.75q0.84375 0.75 0.84375 1.984375q0 1.234375 -0.84375 1.984375q-0.84375 0.75 -2.859375 0.75l-6.125 0l21.09375 27.28125l20.96875 -27.28125l-6.125 0q-2.015625 0 -2.859375 -0.75q-0.84375 -0.75 -0.84375 -1.984375q0 -1.234375 0.84375 -1.984375q0.84375 -0.75 2.859375 -0.75l14.96875 0q1.953125 0 2.796875 0.75q0.859375 0.75 0.859375 1.984375q0 1.234375 -0.859375 1.984375q-0.84375 0.75 -2.796875 0.75l-2.078125 0l-24.34375 31.703125zm104.61926 -2.59375l0 7.8125l-55.796875 0l0 -7.8125l55.796875 0zm85.54114 3.703125q0 10.9375 -4.4375 20.28125q-4.421875 9.34375 -12.203125 14.546875q-7.78125 5.203125 -16.6875 5.203125q-13.21875 0 -23.28125 -11.21875q-10.0625 -11.234375 -10.0625 -28.8125q0 -17.640625 10.0625 -28.828125q10.0625 -11.203125 23.28125 -11.203125q8.90625 0 16.65625 5.203125q7.75 5.203125 12.203125 14.515625q4.46875 9.3125 4.46875 20.3125zm-5.53125 0q0 -13.34375 -7.75 -23.953125q-7.75 -10.609375 -20.046875 -10.609375q-11.53125 0 -19.703125 10.125q-8.171875 10.109375 -8.171875 24.4375q0 15.234375 8.5625 24.90625q8.5625 9.671875 19.3125 9.671875q12.296875 0 20.046875 -10.578125q7.75 -10.59375 7.75 -24.0z" fill-rule="nonzero"/><path fill="#000000" d="m185.49457 780.7905l0 7.8125l-55.796875 0l0 -7.8125l55.796875 0zm80.00989 0l0 7.8125l-55.79686 0l0 -7.8125l55.79686 0zm80.00992 0l0 7.8125l-55.796875 0l0 -7.8125l55.796875 0zm80.00992 0l0 7.8125l-55.796875 0l0 -7.8125l55.796875 0zm80.00989 0l0 7.8125l-55.796875 0l0 -7.8125l55.796875 0zm80.00989 0l0 7.8125l-55.796875 0l0 -7.8125l55.796875 0zm80.00989 0l0 7.8125l-55.796875 0l0 -7.8125l55.796875 0zm80.00989 0l0 7.8125l-55.796875 0l0 -7.8125l55.796875 0zm80.00989 0l0 7.8125l-55.796875 0l0 -7.8125l55.796875 0zm80.00989 0l0 7.8125l-55.796875 0l0 -7.8125l55.796875 0z" fill-rule="nonzero"/><path fill="#000000" d="m185.49457 868.7905l0 7.8125l-55.796875 0l0 -7.8125l55.796875 0zm80.00989 0l0 7.8125l-55.79686 0l0 -7.8125l55.79686 0zm80.00992 0l0 7.8125l-55.796875 0l0 -7.8125l55.796875 0zm80.00992 0l0 7.8125l-55.796875 0l0 -7.8125l55.796875 0zm85.54114 3.703125q0 10.9375 -4.4375 20.28125q-4.421875 9.34375 -12.203125 14.546875q-7.78125 5.203125 -16.6875 5.203125q-13.21875 0 -23.28125 -11.21875q-10.0625 -11.234375 -10.0625 -28.8125q0 -17.640625 10.0625 -28.828125q10.0625 -11.203125 23.28125 -11.203125q8.90625 0 16.65625 5.203125q7.75 5.203125 12.203125 14.515625q4.46875 9.3125 4.46875 20.3125zm-5.53125 0q0 -13.34375 -7.75 -23.953125q-7.75 -10.609375 -20.046875 -10.609375q-11.53125 0 -19.703125 10.125q-8.171875 10.109375 -8.171875 24.4375q0 15.234375 8.5625 24.90625q8.5625 9.671875 19.3125 9.671875q12.296875 0 20.046875 -10.578125q7.75 -10.59375 7.75 -24.0zm85.54114 0q0 10.9375 -4.4375 20.28125q-4.421875 9.34375 -12.203125 14.546875q-7.78125 5.203125 -16.6875 5.203125q-13.21875 0 -23.28125 -11.21875q-10.0625 -11.234375 -10.0625 -28.8125q0 -17.640625 10.0625 -28.828125q10.0625 -11.203125 23.28125 -11.203125q8.90625 0 16.65625 5.203125q7.75 5.203125 12.203125 14.515625q4.46875 9.3125 4.46875 20.3125zm-5.53125 0q0 -13.34375 -7.75 -23.953125q-7.75 -10.609375 -20.046875 -10.609375q-11.53125 0 -19.703125 10.125q-8.171875 10.109375 -8.171875 24.4375q0 15.234375 8.5625 24.90625q8.5625 9.671875 19.3125 9.671875q12.296875 0 20.046875 -10.578125q7.75 -10.59375 7.75 -24.0zm85.54114 0q0 10.9375 -4.4375 20.28125q-4.421875 9.34375 -12.203125 14.546875q-7.78125 5.203125 -16.6875 5.203125q-13.21875 0 -23.28125 -11.21875q-10.0625 -11.234375 -10.0625 -28.8125q0 -17.640625 10.0625 -28.828125q10.0625 -11.203125 23.28125 -11.203125q8.90625 0 16.65625 5.203125q7.75 5.203125 12.203125 14.515625q4.46875 9.3125 4.46875 20.3125zm-5.53125 0q0 -13.34375 -7.75 -23.953125q-7.75 -10.609375 -20.046875 -10.609375q-11.53125 0 -19.703125 10.125q-8.171875 10.109375 -8.171875 24.4375q0 15.234375 8.5625 24.90625q8.5625 9.671875 19.3125 9.671875q12.296875 0 20.046875 -10.578125q7.75 -10.59375 7.75 -24.0zm85.54114 0q0 10.9375 -4.4375 20.28125q-4.421875 9.34375 -12.203125 14.546875q-7.78125 5.203125 -16.6875 5.203125q-13.21875 0 -23.28125 -11.21875q-10.0625 -11.234375 -10.0625 -28.8125q0 -17.640625 10.0625 -28.828125q10.0625 -11.203125 23.28125 -11.203125q8.90625 0 16.65625 5.203125q7.75 5.203125 12.203125 14.515625q4.46875 9.3125 4.46875 20.3125zm-5.53125 0q0 -13.34375 -7.75 -23.953125q-7.75 -10.609375 -20.046875 -10.609375q-11.53125 0 -19.703125 10.125q-8.171875 10.109375 -8.171875 24.4375q0 15.234375 8.5625 24.90625q8.5625 9.671875 19.3125 9.671875q12.296875 0 20.046875 -10.578125q7.75 -10.59375 7.75 -24.0zm85.54114 0q0 10.9375 -4.4375 20.28125q-4.421875 9.34375 -12.203125 14.546875q-7.78125 5.203125 -16.6875 5.203125q-13.21875 0 -23.28125 -11.21875q-10.0625 -11.234375 -10.0625 -28.8125q0 -17.640625 10.0625 -28.828125q10.0625 -11.203125 23.28125 -11.203125q8.90625 0 16.65625 5.203125q7.75 5.203125 12.203125 14.515625q4.46875 9.3125 4.46875 20.3125zm-5.53125 0q0 -13.34375 -7.75 -23.953125q-7.75 -10.609375 -20.046875 -10.609375q-11.53125 0 -19.703125 10.125q-8.171875 10.109375 -8.171875 24.4375q0 15.234375 8.5625 24.90625q8.5625 9.671875 19.3125 9.671875q12.296875 0 20.046875 -10.578125q7.75 -10.59375 7.75 -24.0zm85.54114 0q0 10.9375 -4.4375 20.28125q-4.421875 9.34375 -12.203125 14.546875q-7.78125 5.203125 -16.6875 5.203125q-13.21875 0 -23.28125 -11.21875q-10.0625 -11.234375 -10.0625 -28.8125q0 -17.640625 10.0625 -28.828125q10.0625 -11.203125 23.28125 -11.203125q8.90625 0 16.65625 5.203125q7.75 5.203125 12.203125 14.515625q4.46875 9.3125 4.46875 20.3125zm-5.53125 0q0 -13.34375 -7.75 -23.953125q-7.75 -10.609375 -20.046875 -10.609375q-11.53125 0 -19.703125 10.125q-8.171875 10.109375 -8.171875 24.4375q0 15.234375 8.5625 24.90625q8.5625 9.671875 19.3125 9.671875q12.296875 0 20.046875 -10.578125q7.75 -10.59375 7.75 -24.0z" fill-rule="nonzero"/><path fill="#000000" fill-opacity="0.0" d="m-0.007874016 -0.0065616798l1035.2756 0l0 975.9685l-1035.2756 0z" fill-rule="evenodd"/><path fill="#000000" d="m191.01794 80.48706q0 10.9375 -4.4375 20.28125q-4.421875 9.34375 -12.203125 14.546875q-7.78125 5.203125 -16.6875 5.203125q-13.21875 0 -23.28125 -11.21875q-10.0625 -11.234375 -10.0625 -28.8125q0 -17.640625 10.0625 -28.828125q10.0625 -11.203125 23.28125 -11.203125q8.90625 0 16.65625 5.203125q7.75 5.203125 12.203125 14.515625q4.46875 9.3125 4.46875 20.3125zm-5.53125 0q0 -13.34375 -7.75 -23.953125q-7.75 -10.609375 -20.046875 -10.609375q-11.53125 0 -19.703125 10.125q-8.171875 10.109375 -8.171875 24.4375q0 15.234375 8.5625 24.90625q8.5625 9.671875 19.3125 9.671875q12.296875 0 20.046875 -10.578125q7.75 -10.59375 7.75 -24.0zm85.54114 0q0 10.9375 -4.4375 20.28125q-4.421875 9.34375 -12.20311 14.546875q-7.78125 5.203125 -16.6875 5.203125q-13.21875 0 -23.28125 -11.21875q-10.0625 -11.234375 -10.0625 -28.8125q0 -17.640625 10.0625 -28.828125q10.0625 -11.203125 23.28125 -11.203125q8.90625 0 16.65625 5.203125q7.7499847 5.203125 12.20311 14.515625q4.46875 9.3125 4.46875 20.3125zm-5.53125 0q0 -13.34375 -7.75 -23.953125q-7.7499847 -10.609375 -20.04686 -10.609375q-11.53125 0 -19.703125 10.125q-8.171875 10.109375 -8.171875 24.4375q0 15.234375 8.5625 24.90625q8.5625 9.671875 19.3125 9.671875q12.296875 0 20.04686 -10.578125q7.75 -10.59375 7.75 -24.0zm80.00992 -3.703125l0 7.8125l-55.796875 0l0 -7.8125l55.796875 0zm85.54117 3.703125q0 10.9375 -4.4375 20.28125q-4.421875 9.34375 -12.203125 14.546875q-7.78125 5.203125 -16.6875 5.203125q-13.21875 0 -23.28125 -11.21875q-10.0625 -11.234375 -10.0625 -28.8125q0 -17.640625 10.0625 -28.828125q10.0625 -11.203125 23.28125 -11.203125q8.90625 0 16.65625 5.203125q7.75 5.203125 12.203125 14.515625q4.46875 9.3125 4.46875 20.3125zm-5.53125 0q0 -13.34375 -7.75 -23.953125q-7.75 -10.609375 -20.046875 -10.609375q-11.53125 0 -19.703125 10.125q-8.171875 10.109375 -8.171875 24.4375q0 15.234375 8.5625 24.90625q8.5625 9.671875 19.3125 9.671875q12.296875 0 20.046875 -10.578125q7.75 -10.59375 7.75 -24.0zm80.00989 -3.703125l0 7.8125l-55.796875 0l0 -7.8125l55.796875 0zm80.00989 0l0 7.8125l-55.796875 0l0 -7.8125l55.796875 0zm85.54114 3.703125q0 10.9375 -4.4375 20.28125q-4.421875 9.34375 -12.203125 14.546875q-7.78125 5.203125 -16.6875 5.203125q-13.21875 0 -23.28125 -11.21875q-10.0625 -11.234375 -10.0625 -28.8125q0 -17.640625 10.0625 -28.828125q10.0625 -11.203125 23.28125 -11.203125q8.90625 0 16.65625 5.203125q7.75 5.203125 12.203125 14.515625q4.46875 9.3125 4.46875 20.3125zm-5.53125 0q0 -13.34375 -7.75 -23.953125q-7.75 -10.609375 -20.046875 -10.609375q-11.53125 0 -19.703125 10.125q-8.171875 10.109375 -8.171875 24.4375q0 15.234375 8.5625 24.90625q8.5625 9.671875 19.3125 9.671875q12.296875 0 20.046875 -10.578125q7.75 -10.59375 7.75 -24.0zm85.54114 0q0 10.9375 -4.4375 20.28125q-4.421875 9.34375 -12.203125 14.546875q-7.78125 5.203125 -16.6875 5.203125q-13.21875 0 -23.28125 -11.21875q-10.0625 -11.234375 -10.0625 -28.8125q0 -17.640625 10.0625 -28.828125q10.0625 -11.203125 23.28125 -11.203125q8.90625 0 16.65625 5.203125q7.75 5.203125 12.203125 14.515625q4.46875 9.3125 4.46875 20.3125zm-5.53125 0q0 -13.34375 -7.75 -23.953125q-7.75 -10.609375 -20.046875 -10.609375q-11.53125 0 -19.703125 10.125q-8.171875 10.109375 -8.171875 24.4375q0 15.234375 8.5625 24.90625q8.5625 9.671875 19.3125 9.671875q12.296875 0 20.046875 -10.578125q7.75 -10.59375 7.75 -24.0zm85.54114 0q0 10.9375 -4.4375 20.28125q-4.421875 9.34375 -12.203125 14.546875q-7.78125 5.203125 -16.6875 5.203125q-13.21875 0 -23.28125 -11.21875q-10.0625 -11.234375 -10.0625 -28.8125q0 -17.640625 10.0625 -28.828125q10.0625 -11.203125 23.28125 -11.203125q8.90625 0 16.65625 5.203125q7.75 5.203125 12.203125 14.515625q4.46875 9.3125 4.46875 20.3125zm-5.53125 0q0 -13.34375 -7.75 -23.953125q-7.75 -10.609375 -20.046875 -10.609375q-11.53125 0 -19.703125 10.125q-8.171875 10.109375 -8.171875 24.4375q0 15.234375 8.5625 24.90625q8.5625 9.671875 19.3125 9.671875q12.296875 0 20.046875 -10.578125q7.75 -10.59375 7.75 -24.0zm85.54114 0q0 10.9375 -4.4375 20.28125q-4.421875 9.34375 -12.203125 14.546875q-7.78125 5.203125 -16.6875 5.203125q-13.21875 0 -23.28125 -11.21875q-10.0625 -11.234375 -10.0625 -28.8125q0 -17.640625 10.0625 -28.828125q10.0625 -11.203125 23.28125 -11.203125q8.90625 0 16.65625 5.203125q7.75 5.203125 12.203125 14.515625q4.46875 9.3125 4.46875 20.3125zm-5.53125 0q0 -13.34375 -7.75 -23.953125q-7.75 -10.609375 -20.046875 -10.609375q-11.53125 0 -19.703125 10.125q-8.171875 10.109375 -8.171875 24.4375q0 15.234375 8.5625 24.90625q8.5625 9.671875 19.3125 9.671875q12.296875 0 20.046875 -10.578125q7.75 -10.59375 7.75 -24.0z" fill-rule="nonzero"/><path fill="#000000" d="m185.4867 164.78394l0 7.8125l-55.796875 0l0 -7.8125l55.796875 0zm80.00989 0l0 7.8125l-55.79686 0l0 -7.8125l55.79686 0zm80.00992 0l0 7.8125l-55.796875 0l0 -7.8125l55.796875 0zm85.54117 3.703125q0 10.9375 -4.4375 20.28125q-4.421875 9.34375 -12.203125 14.546875q-7.78125 5.203125 -16.6875 5.203125q-13.21875 0 -23.28125 -11.21875q-10.0625 -11.234375 -10.0625 -28.8125q0 -17.640625 10.0625 -28.828125q10.0625 -11.203125 23.28125 -11.203125q8.90625 0 16.65625 5.203125q7.75 5.203125 12.203125 14.515625q4.46875 9.3125 4.46875 20.3125zm-5.53125 0q0 -13.34375 -7.75 -23.953125q-7.75 -10.609375 -20.046875 -10.609375q-11.53125 0 -19.703125 10.125q-8.171875 10.109375 -8.171875 24.4375q0 15.234375 8.5625 24.90625q8.5625 9.671875 19.3125 9.671875q12.296875 0 20.046875 -10.578125q7.75 -10.59375 7.75 -24.0zm80.00989 -3.703125l0 7.8125l-55.796875 0l0 -7.8125l55.796875 0zm80.00989 0l0 7.8125l-55.796875 0l0 -7.8125l55.796875 0zm80.00989 0l0 7.8125l-55.796875 0l0 -7.8125l55.796875 0zm80.00989 0l0 7.8125l-55.796875 0l0 -7.8125l55.796875 0zm80.00989 0l0 7.8125l-55.796875 0l0 -7.8125l55.796875 0zm80.00989 0l0 7.8125l-55.796875 0l0 -7.8125l55.796875 0z" fill-rule="nonzero"/><path fill="#000000" d="m191.01794 256.48706q0 10.9375 -4.4375 20.28125q-4.421875 9.34375 -12.203125 14.546875q-7.78125 5.203125 -16.6875 5.203125q-13.21875 0 -23.28125 -11.21875q-10.0625 -11.234375 -10.0625 -28.8125q0 -17.640625 10.0625 -28.828125q10.0625 -11.203125 23.28125 -11.203125q8.90625 0 16.65625 5.203125q7.75 5.203125 12.203125 14.515625q4.46875 9.3125 4.46875 20.3125zm-5.53125 0q0 -13.34375 -7.75 -23.953125q-7.75 -10.609375 -20.046875 -10.609375q-11.53125 0 -19.703125 10.125q-8.171875 10.109375 -8.171875 24.4375q0 15.234375 8.5625 24.90625q8.5625 9.671875 19.3125 9.671875q12.296875 0 20.046875 -10.578125q7.75 -10.59375 7.75 -24.0zm80.00989 -3.703125l0 7.8125l-55.79686 0l0 -7.8125l55.79686 0zm80.00992 0l0 7.8125l-55.796875 0l0 -7.8125l55.796875 0zm85.54117 3.703125q0 10.9375 -4.4375 20.28125q-4.421875 9.34375 -12.203125 14.546875q-7.78125 5.203125 -16.6875 5.203125q-13.21875 0 -23.28125 -11.21875q-10.0625 -11.234375 -10.0625 -28.8125q0 -17.640625 10.0625 -28.828125q10.0625 -11.203125 23.28125 -11.203125q8.90625 0 16.65625 5.203125q7.75 5.203125 12.203125 14.515625q4.46875 9.3125 4.46875 20.3125zm-5.53125 0q0 -13.34375 -7.75 -23.953125q-7.75 -10.609375 -20.046875 -10.609375q-11.53125 0 -19.703125 10.125q-8.171875 10.109375 -8.171875 24.4375q0 15.234375 8.5625 24.90625q8.5625 9.671875 19.3125 9.671875q12.296875 0 20.046875 -10.578125q7.75 -10.59375 7.75 -24.0zm80.00989 -3.703125l0 7.8125l-55.796875 0l0 -7.8125l55.796875 0zm85.54114 3.703125q0 10.9375 -4.4375 20.28125q-4.421875 9.34375 -12.203125 14.546875q-7.78125 5.203125 -16.6875 5.203125q-13.21875 0 -23.28125 -11.21875q-10.0625 -11.234375 -10.0625 -28.8125q0 -17.640625 10.0625 -28.828125q10.0625 -11.203125 23.28125 -11.203125q8.90625 0 16.65625 5.203125q7.75 5.203125 12.203125 14.515625q4.46875 9.3125 4.46875 20.3125zm-5.53125 0q0 -13.34375 -7.75 -23.953125q-7.75 -10.609375 -20.046875 -10.609375q-11.53125 0 -19.703125 10.125q-8.171875 10.109375 -8.171875 24.4375q0 15.234375 8.5625 24.90625q8.5625 9.671875 19.3125 9.671875q12.296875 0 20.046875 -10.578125q7.75 -10.59375 7.75 -24.0zm85.54114 0q0 10.9375 -4.4375 20.28125q-4.421875 9.34375 -12.203125 14.546875q-7.78125 5.203125 -16.6875 5.203125q-13.21875 0 -23.28125 -11.21875q-10.0625 -11.234375 -10.0625 -28.8125q0 -17.640625 10.0625 -28.828125q10.0625 -11.203125 23.28125 -11.203125q8.90625 0 16.65625 5.203125q7.75 5.203125 12.203125 14.515625q4.46875 9.3125 4.46875 20.3125zm-5.53125 0q0 -13.34375 -7.75 -23.953125q-7.75 -10.609375 -20.046875 -10.609375q-11.53125 0 -19.703125 10.125q-8.171875 10.109375 -8.171875 24.4375q0 15.234375 8.5625 24.90625q8.5625 9.671875 19.3125 9.671875q12.296875 0 20.046875 -10.578125q7.75 -10.59375 7.75 -24.0zm85.54114 0q0 10.9375 -4.4375 20.28125q-4.421875 9.34375 -12.203125 14.546875q-7.78125 5.203125 -16.6875 5.203125q-13.21875 0 -23.28125 -11.21875q-10.0625 -11.234375 -10.0625 -28.8125q0 -17.640625 10.0625 -28.828125q10.0625 -11.203125 23.28125 -11.203125q8.90625 0 16.65625 5.203125q7.75 5.203125 12.203125 14.515625q4.46875 9.3125 4.46875 20.3125zm-5.53125 0q0 -13.34375 -7.75 -23.953125q-7.75 -10.609375 -20.046875 -10.609375q-11.53125 0 -19.703125 10.125q-8.171875 10.109375 -8.171875 24.4375q0 15.234375 8.5625 24.90625q8.5625 9.671875 19.3125 9.671875q12.296875 0 20.046875 -10.578125q7.75 -10.59375 7.75 -24.0zm80.00989 -3.703125l0 7.8125l-55.796875 0l0 -7.8125l55.796875 0zm85.54114 3.703125q0 10.9375 -4.4375 20.28125q-4.421875 9.34375 -12.203125 14.546875q-7.78125 5.203125 -16.6875 5.203125q-13.21875 0 -23.28125 -11.21875q-10.0625 -11.234375 -10.0625 -28.8125q0 -17.640625 10.0625 -28.828125q10.0625 -11.203125 23.28125 -11.203125q8.90625 0 16.65625 5.203125q7.75 5.203125 12.203125 14.515625q4.46875 9.3125 4.46875 20.3125zm-5.53125 0q0 -13.34375 -7.75 -23.953125q-7.75 -10.609375 -20.046875 -10.609375q-11.53125 0 -19.703125 10.125q-8.171875 10.109375 -8.171875 24.4375q0 15.234375 8.5625 24.90625q8.5625 9.671875 19.3125 9.671875q12.296875 0 20.046875 -10.578125q7.75 -10.59375 7.75 -24.0z" fill-rule="nonzero"/><path fill="#000000" d="m191.01794 344.48706q0 10.9375 -4.4375 20.28125q-4.421875 9.34375 -12.203125 14.546875q-7.78125 5.203125 -16.6875 5.203125q-13.21875 0 -23.28125 -11.21875q-10.0625 -11.234375 -10.0625 -28.8125q0 -17.640625 10.0625 -28.828125q10.0625 -11.203125 23.28125 -11.203125q8.90625 0 16.65625 5.203125q7.75 5.203125 12.203125 14.515625q4.46875 9.3125 4.46875 20.3125zm-5.53125 0q0 -13.34375 -7.75 -23.953125q-7.75 -10.609375 -20.046875 -10.609375q-11.53125 0 -19.703125 10.125q-8.171875 10.109375 -8.171875 24.4375q0 15.234375 8.5625 24.90625q8.5625 9.671875 19.3125 9.671875q12.296875 0 20.046875 -10.578125q7.75 -10.59375 7.75 -24.0zm80.00989 -3.703125l0 7.8125l-55.79686 0l0 -7.8125l55.79686 0zm55.400543 2.59375l25.96875 33.53125l2.078125 0q1.953125 0 2.796875 0.75q0.859375 0.75 0.859375 1.984375q0 1.171875 -0.859375 1.953125q-0.84375 0.78125 -2.796875 0.78125l-17.5625 0q-1.953125 0 -2.8125 -0.78125q-0.84375 -0.78125 -0.84375 -1.953125q0 -1.234375 0.84375 -1.984375q0.859375 -0.75 2.8125 -0.75l8.71875 0l-22.59375 -29.03125l-22.328125 29.03125l8.71875 0q1.953125 0 2.796875 0.75q0.859375 0.75 0.859375 1.984375q0 1.171875 -0.859375 1.953125q-0.84375 0.78125 -2.796875 0.78125l-17.4375 0q-1.953125 0 -2.8125 -0.78125q-0.84375 -0.78125 -0.84375 -1.953125q0 -0.90625 0.515625 -1.625q0.53125 -0.71875 1.171875 -0.90625q0.65625 -0.203125 3.984375 -0.203125l25.640625 -33.53125l-24.46875 -31.703125l-2.015625 0q-1.953125 0 -2.8125 -0.75q-0.84375 -0.75 -0.84375 -1.984375q0 -1.234375 0.84375 -1.984375q0.859375 -0.75 2.8125 -0.75l14.90625 0q2.015625 0 2.859375 0.75q0.84375 0.75 0.84375 1.984375q0 1.234375 -0.84375 1.984375q-0.84375 0.75 -2.859375 0.75l-6.125 0l21.09375 27.28125l20.96875 -27.28125l-6.125 0q-2.015625 0 -2.859375 -0.75q-0.84375 -0.75 -0.84375 -1.984375q0 -1.234375 0.84375 -1.984375q0.84375 -0.75 2.859375 -0.75l14.96875 0q1.953125 0 2.796875 0.75q0.859375 0.75 0.859375 1.984375q0 1.234375 -0.859375 1.984375q-0.84375 0.75 -2.796875 0.75l-2.078125 0l-24.34375 31.703125zm104.61929 -2.59375l0 7.8125l-55.796875 0l0 -7.8125l55.796875 0zm80.00989 0l0 7.8125l-55.796875 0l0 -7.8125l55.796875 0zm80.00989 0l0 7.8125l-55.796875 0l0 -7.8125l55.796875 0zm80.00989 0l0 7.8125l-55.796875 0l0 -7.8125l55.796875 0zm80.00989 0l0 7.8125l-55.796875 0l0 -7.8125l55.796875 0zm80.00989 0l0 7.8125l-55.796875 0l0 -7.8125l55.796875 0zm85.54114 3.703125q0 10.9375 -4.4375 20.28125q-4.421875 9.34375 -12.203125 14.546875q-7.78125 5.203125 -16.6875 5.203125q-13.21875 0 -23.28125 -11.21875q-10.0625 -11.234375 -10.0625 -28.8125q0 -17.640625 10.0625 -28.828125q10.0625 -11.203125 23.28125 -11.203125q8.90625 0 16.65625 5.203125q7.75 5.203125 12.203125 14.515625q4.46875 9.3125 4.46875 20.3125zm-5.53125 0q0 -13.34375 -7.75 -23.953125q-7.75 -10.609375 -20.046875 -10.609375q-11.53125 0 -19.703125 10.125q-8.171875 10.109375 -8.171875 24.4375q0 15.234375 8.5625 24.90625q8.5625 9.671875 19.3125 9.671875q12.296875 0 20.046875 -10.578125q7.75 -10.59375 7.75 -24.0z" fill-rule="nonzero"/><path fill="#000000" d="m191.01794 432.48706q0 10.9375 -4.4375 20.28125q-4.421875 9.34375 -12.203125 14.546875q-7.78125 5.203125 -16.6875 5.203125q-13.21875 0 -23.28125 -11.21875q-10.0625 -11.234375 -10.0625 -28.8125q0 -17.640625 10.0625 -28.828125q10.0625 -11.203125 23.28125 -11.203125q8.90625 0 16.65625 5.203125q7.75 5.203125 12.203125 14.515625q4.46875 9.3125 4.46875 20.3125zm-5.53125 0q0 -13.34375 -7.75 -23.953125q-7.75 -10.609375 -20.046875 -10.609375q-11.53125 0 -19.703125 10.125q-8.171875 10.109375 -8.171875 24.4375q0 15.234375 8.5625 24.90625q8.5625 9.671875 19.3125 9.671875q12.296875 0 20.046875 -10.578125q7.75 -10.59375 7.75 -24.0zm80.00989 -3.703125l0 7.8125l-55.79686 0l0 -7.8125l55.79686 0zm80.00992 0l0 7.8125l-55.796875 0l0 -7.8125l55.796875 0zm80.00992 0l0 7.8125l-55.796875 0l0 -7.8125l55.796875 0zm80.00989 0l0 7.8125l-55.796875 0l0 -7.8125l55.796875 0zm55.400513 2.59375l25.96875 33.53125l2.078125 0q1.953125 0 2.796875 0.75q0.859375 0.75 0.859375 1.984375q0 1.171875 -0.859375 1.953125q-0.84375 0.78125 -2.796875 0.78125l-17.5625 0q-1.953125 0 -2.8125 -0.78125q-0.84375 -0.78125 -0.84375 -1.953125q0 -1.234375 0.84375 -1.984375q0.859375 -0.75 2.8125 -0.75l8.71875 0l-22.59375 -29.03125l-22.328125 29.03125l8.71875 0q1.953125 0 2.796875 0.75q0.859375 0.75 0.859375 1.984375q0 1.171875 -0.859375 1.953125q-0.84375 0.78125 -2.796875 0.78125l-17.4375 0q-1.953125 0 -2.8125 -0.78125q-0.84375 -0.78125 -0.84375 -1.953125q0 -0.90625 0.515625 -1.625q0.53125 -0.71875 1.171875 -0.90625q0.65625 -0.203125 3.984375 -0.203125l25.640625 -33.53125l-24.46875 -31.703125l-2.015625 0q-1.953125 0 -2.8125 -0.75q-0.84375 -0.75 -0.84375 -1.984375q0 -1.234375 0.84375 -1.984375q0.859375 -0.75 2.8125 -0.75l14.90625 0q2.015625 0 2.859375 0.75q0.84375 0.75 0.84375 1.984375q0 1.234375 -0.84375 1.984375q-0.84375 0.75 -2.859375 0.75l-6.125 0l21.09375 27.28125l20.96875 -27.28125l-6.125 0q-2.015625 0 -2.859375 -0.75q-0.84375 -0.75 -0.84375 -1.984375q0 -1.234375 0.84375 -1.984375q0.84375 -0.75 2.859375 -0.75l14.96875 0q1.953125 0 2.796875 0.75q0.859375 0.75 0.859375 1.984375q0 1.234375 -0.859375 1.984375q-0.84375 0.75 -2.796875 0.75l-2.078125 0l-24.34375 31.703125zm80.00989 0l25.96875 33.53125l2.078125 0q1.953125 0 2.796875 0.75q0.859375 0.75 0.859375 1.984375q0 1.171875 -0.859375 1.953125q-0.84375 0.78125 -2.796875 0.78125l-17.5625 0q-1.953125 0 -2.8125 -0.78125q-0.84375 -0.78125 -0.84375 -1.953125q0 -1.234375 0.84375 -1.984375q0.859375 -0.75 2.8125 -0.75l8.71875 0l-22.59375 -29.03125l-22.328125 29.03125l8.71875 0q1.953125 0 2.796875 0.75q0.859375 0.75 0.859375 1.984375q0 1.171875 -0.859375 1.953125q-0.84375 0.78125 -2.796875 0.78125l-17.4375 0q-1.953125 0 -2.8125 -0.78125q-0.84375 -0.78125 -0.84375 -1.953125q0 -0.90625 0.515625 -1.625q0.53125 -0.71875 1.171875 -0.90625q0.65625 -0.203125 3.984375 -0.203125l25.640625 -33.53125l-24.46875 -31.703125l-2.015625 0q-1.953125 0 -2.8125 -0.75q-0.84375 -0.75 -0.84375 -1.984375q0 -1.234375 0.84375 -1.984375q0.859375 -0.75 2.8125 -0.75l14.90625 0q2.015625 0 2.859375 0.75q0.84375 0.75 0.84375 1.984375q0 1.234375 -0.84375 1.984375q-0.84375 0.75 -2.859375 0.75l-6.125 0l21.09375 27.28125l20.96875 -27.28125l-6.125 0q-2.015625 0 -2.859375 -0.75q-0.84375 -0.75 -0.84375 -1.984375q0 -1.234375 0.84375 -1.984375q0.84375 -0.75 2.859375 -0.75l14.96875 0q1.953125 0 2.796875 0.75q0.859375 0.75 0.859375 1.984375q0 1.234375 -0.859375 1.984375q-0.84375 0.75 -2.796875 0.75l-2.078125 0l-24.34375 31.703125zm104.61926 -2.59375l0 7.8125l-55.796875 0l0 -7.8125l55.796875 0zm80.00989 0l0 7.8125l-55.796875 0l0 -7.8125l55.796875 0zm80.00989 0l0 7.8125l-55.796875 0l0 -7.8125l55.796875 0z" fill-rule="nonzero"/><path fill="#000000" d="m191.01794 520.48706q0 10.9375 -4.4375 20.28125q-4.421875 9.34375 -12.203125 14.546875q-7.78125 5.203125 -16.6875 5.203125q-13.21875 0 -23.28125 -11.21875q-10.0625 -11.234375 -10.0625 -28.8125q0 -17.640594 10.0625 -28.828094q10.0625 -11.203125 23.28125 -11.203125q8.90625 0 16.65625 5.203125q7.75 5.203125 12.203125 14.515625q4.46875 9.3125 4.46875 20.31247zm-5.53125 0q0 -13.3437195 -7.75 -23.953094q-7.75 -10.609375 -20.046875 -10.609375q-11.53125 0 -19.703125 10.125q-8.171875 10.109375 -8.171875 24.43747q0 15.234375 8.5625 24.90625q8.5625 9.671875 19.3125 9.671875q12.296875 0 20.046875 -10.578125q7.75 -10.59375 7.75 -24.0zm55.400528 -1.109375l25.968735 33.53125l2.078125 0q1.953125 0 2.796875 0.75q0.859375 0.75 0.859375 1.984375q0 1.171875 -0.859375 1.953125q-0.84375 0.78125 -2.796875 0.78125l-17.562485 0q-1.953125 0 -2.8125 -0.78125q-0.84375 -0.78125 -0.84375 -1.953125q0 -1.234375 0.84375 -1.984375q0.859375 -0.75 2.8125 -0.75l8.718735 0l-22.593735 -29.03125l-22.328125 29.03125l8.71875 0q1.953125 0 2.796875 0.75q0.859375 0.75 0.859375 1.984375q0 1.171875 -0.859375 1.953125q-0.84375 0.78125 -2.796875 0.78125l-17.4375 0q-1.953125 0 -2.8125 -0.78125q-0.84375 -0.78125 -0.84375 -1.953125q0 -0.90625 0.515625 -1.625q0.53125 -0.71875 1.171875 -0.90625q0.65625 -0.203125 3.984375 -0.203125l25.640625 -33.53125l-24.46875 -31.703094l-2.015625 0q-1.953125 0 -2.8125 -0.75q-0.84375 -0.75 -0.84375 -1.984375q0 -1.234375 0.84375 -1.984375q0.859375 -0.75 2.8125 -0.75l14.90625 0q2.015625 0 2.859375 0.75q0.84375 0.75 0.84375 1.984375q0 1.234375 -0.84375 1.984375q-0.84375 0.75 -2.859375 0.75l-6.125 0l21.09375 27.28122l20.968735 -27.28122l-6.1249847 0q-2.015625 0 -2.859375 -0.75q-0.84375 -0.75 -0.84375 -1.984375q0 -1.234375 0.84375 -1.984375q0.84375 -0.75 2.859375 -0.75l14.968735 0q1.953125 0 2.796875 0.75q0.859375 0.75 0.859375 1.984375q0 1.234375 -0.859375 1.984375q-0.84375 0.75 -2.796875 0.75l-2.078125 0l-24.343735 31.703094zm104.61928 -2.59375l0 7.8125l-55.796875 0l0 -7.8125l55.796875 0zm80.00992 0l0 7.8125l-55.796875 0l0 -7.8125l55.796875 0zm80.00989 0l0 7.8125l-55.796875 0l0 -7.8125l55.796875 0zm85.54114 3.703125q0 10.9375 -4.4375 20.28125q-4.421875 9.34375 -12.203125 14.546875q-7.78125 5.203125 -16.6875 5.203125q-13.21875 0 -23.28125 -11.21875q-10.0625 -11.234375 -10.0625 -28.8125q0 -17.640594 10.0625 -28.828094q10.0625 -11.203125 23.28125 -11.203125q8.90625 0 16.65625 5.203125q7.75 5.203125 12.203125 14.515625q4.46875 9.3125 4.46875 20.31247zm-5.53125 0q0 -13.3437195 -7.75 -23.953094q-7.75 -10.609375 -20.046875 -10.609375q-11.53125 0 -19.703125 10.125q-8.171875 10.109375 -8.171875 24.43747q0 15.234375 8.5625 24.90625q8.5625 9.671875 19.3125 9.671875q12.296875 0 20.046875 -10.578125q7.75 -10.59375 7.75 -24.0zm80.00989 -3.703125l0 7.8125l-55.796875 0l0 -7.8125l55.796875 0zm55.400513 2.59375l25.96875 33.53125l2.078125 0q1.953125 0 2.796875 0.75q0.859375 0.75 0.859375 1.984375q0 1.171875 -0.859375 1.953125q-0.84375 0.78125 -2.796875 0.78125l-17.5625 0q-1.953125 0 -2.8125 -0.78125q-0.84375 -0.78125 -0.84375 -1.953125q0 -1.234375 0.84375 -1.984375q0.859375 -0.75 2.8125 -0.75l8.71875 0l-22.59375 -29.03125l-22.328125 29.03125l8.71875 0q1.953125 0 2.796875 0.75q0.859375 0.75 0.859375 1.984375q0 1.171875 -0.859375 1.953125q-0.84375 0.78125 -2.796875 0.78125l-17.4375 0q-1.953125 0 -2.8125 -0.78125q-0.84375 -0.78125 -0.84375 -1.953125q0 -0.90625 0.515625 -1.625q0.53125 -0.71875 1.171875 -0.90625q0.65625 -0.203125 3.984375 -0.203125l25.640625 -33.53125l-24.46875 -31.703094l-2.015625 0q-1.953125 0 -2.8125 -0.75q-0.84375 -0.75 -0.84375 -1.984375q0 -1.234375 0.84375 -1.984375q0.859375 -0.75 2.8125 -0.75l14.90625 0q2.015625 0 2.859375 0.75q0.84375 0.75 0.84375 1.984375q0 1.234375 -0.84375 1.984375q-0.84375 0.75 -2.859375 0.75l-6.125 0l21.09375 27.28122l20.96875 -27.28122l-6.125 0q-2.015625 0 -2.859375 -0.75q-0.84375 -0.75 -0.84375 -1.984375q0 -1.234375 0.84375 -1.984375q0.84375 -0.75 2.859375 -0.75l14.96875 0q1.953125 0 2.796875 0.75q0.859375 0.75 0.859375 1.984375q0 1.234375 -0.859375 1.984375q-0.84375 0.75 -2.796875 0.75l-2.078125 0l-24.34375 31.703094zm104.61926 -2.59375l0 7.8125l-55.796875 0l0 -7.8125l55.796875 0zm55.400513 2.59375l25.96875 33.53125l2.078125 0q1.953125 0 2.796875 0.75q0.859375 0.75 0.859375 1.984375q0 1.171875 -0.859375 1.953125q-0.84375 0.78125 -2.796875 0.78125l-17.5625 0q-1.953125 0 -2.8125 -0.78125q-0.84375 -0.78125 -0.84375 -1.953125q0 -1.234375 0.84375 -1.984375q0.859375 -0.75 2.8125 -0.75l8.71875 0l-22.59375 -29.03125l-22.328125 29.03125l8.71875 0q1.953125 0 2.796875 0.75q0.859375 0.75 0.859375 1.984375q0 1.171875 -0.859375 1.953125q-0.84375 0.78125 -2.796875 0.78125l-17.4375 0q-1.953125 0 -2.8125 -0.78125q-0.84375 -0.78125 -0.84375 -1.953125q0 -0.90625 0.515625 -1.625q0.53125 -0.71875 1.171875 -0.90625q0.65625 -0.203125 3.984375 -0.203125l25.640625 -33.53125l-24.46875 -31.703094l-2.015625 0q-1.953125 0 -2.8125 -0.75q-0.84375 -0.75 -0.84375 -1.984375q0 -1.234375 0.84375 -1.984375q0.859375 -0.75 2.8125 -0.75l14.90625 0q2.015625 0 2.859375 0.75q0.84375 0.75 0.84375 1.984375q0 1.234375 -0.84375 1.984375q-0.84375 0.75 -2.859375 0.75l-6.125 0l21.09375 27.28122l20.96875 -27.28122l-6.125 0q-2.015625 0 -2.859375 -0.75q-0.84375 -0.75 -0.84375 -1.984375q0 -1.234375 0.84375 -1.984375q0.84375 -0.75 2.859375 -0.75l14.96875 0q1.953125 0 2.796875 0.75q0.859375 0.75 0.859375 1.984375q0 1.234375 -0.859375 1.984375q-0.84375 0.75 -2.796875 0.75l-2.078125 0l-24.34375 31.703094z" fill-rule="nonzero"/><path fill="#000000" d="m185.4867 604.78394l0 7.8125l-55.796875 0l0 -7.8125l55.796875 0zm80.00989 0l0 7.8125l-55.79686 0l0 -7.8125l55.79686 0zm80.00992 0l0 7.8125l-55.796875 0l0 -7.8125l55.796875 0zm55.400543 2.59375l25.96875 33.53125l2.078125 0q1.953125 0 2.796875 0.75q0.859375 0.75 0.859375 1.984375q0 1.171875 -0.859375 1.953125q-0.84375 0.78125 -2.796875 0.78125l-17.5625 0q-1.953125 0 -2.8125 -0.78125q-0.84375 -0.78125 -0.84375 -1.953125q0 -1.234375 0.84375 -1.984375q0.859375 -0.75 2.8125 -0.75l8.71875 0l-22.59375 -29.03125l-22.328125 29.03125l8.71875 0q1.953125 0 2.796875 0.75q0.859375 0.75 0.859375 1.984375q0 1.171875 -0.859375 1.953125q-0.84375 0.78125 -2.796875 0.78125l-17.4375 0q-1.953125 0 -2.8125 -0.78125q-0.84375 -0.78125 -0.84375 -1.953125q0 -0.90625 0.515625 -1.625q0.53125 -0.71875 1.171875 -0.90625q0.65625 -0.203125 3.984375 -0.203125l25.640625 -33.53125l-24.46875 -31.703125l-2.015625 0q-1.953125 0 -2.8125 -0.75q-0.84375 -0.75 -0.84375 -1.984375q0 -1.234375 0.84375 -1.984375q0.859375 -0.75 2.8125 -0.75l14.90625 0q2.015625 0 2.859375 0.75q0.84375 0.75 0.84375 1.984375q0 1.234375 -0.84375 1.984375q-0.84375 0.75 -2.859375 0.75l-6.125 0l21.09375 27.28125l20.96875 -27.28125l-6.125 0q-2.015625 0 -2.859375 -0.75q-0.84375 -0.75 -0.84375 -1.984375q0 -1.234375 0.84375 -1.984375q0.84375 -0.75 2.859375 -0.75l14.96875 0q1.953125 0 2.796875 0.75q0.859375 0.75 0.859375 1.984375q0 1.234375 -0.859375 1.984375q-0.84375 0.75 -2.796875 0.75l-2.078125 0l-24.34375 31.703125zm104.61926 -2.59375l0 7.8125l-55.796875 0l0 -7.8125l55.796875 0zm85.54114 3.703125q0 10.9375 -4.4375 20.28125q-4.421875 9.34375 -12.203125 14.546875q-7.78125 5.203125 -16.6875 5.203125q-13.21875 0 -23.28125 -11.21875q-10.0625 -11.234375 -10.0625 -28.8125q0 -17.640625 10.0625 -28.828125q10.0625 -11.203125 23.28125 -11.203125q8.90625 0 16.65625 5.203125q7.75 5.203125 12.203125 14.515625q4.46875 9.3125 4.46875 20.3125zm-5.53125 0q0 -13.34375 -7.75 -23.953125q-7.75 -10.609375 -20.046875 -10.609375q-11.53125 0 -19.703125 10.125q-8.171875 10.109375 -8.171875 24.4375q0 15.234375 8.5625 24.90625q8.5625 9.671875 19.3125 9.671875q12.296875 0 20.046875 -10.578125q7.75 -10.59375 7.75 -24.0zm80.00989 -3.703125l0 7.8125l-55.796875 0l0 -7.8125l55.796875 0zm80.00989 0l0 7.8125l-55.796875 0l0 -7.8125l55.796875 0zm80.00989 0l0 7.8125l-55.796875 0l0 -7.8125l55.796875 0zm55.400513 2.59375l25.96875 33.53125l2.078125 0q1.953125 0 2.796875 0.75q0.859375 0.75 0.859375 1.984375q0 1.171875 -0.859375 1.953125q-0.84375 0.78125 -2.796875 0.78125l-17.5625 0q-1.953125 0 -2.8125 -0.78125q-0.84375 -0.78125 -0.84375 -1.953125q0 -1.234375 0.84375 -1.984375q0.859375 -0.75 2.8125 -0.75l8.71875 0l-22.59375 -29.03125l-22.328125 29.03125l8.71875 0q1.953125 0 2.796875 0.75q0.859375 0.75 0.859375 1.984375q0 1.171875 -0.859375 1.953125q-0.84375 0.78125 -2.796875 0.78125l-17.4375 0q-1.953125 0 -2.8125 -0.78125q-0.84375 -0.78125 -0.84375 -1.953125q0 -0.90625 0.515625 -1.625q0.53125 -0.71875 1.171875 -0.90625q0.65625 -0.203125 3.984375 -0.203125l25.640625 -33.53125l-24.46875 -31.703125l-2.015625 0q-1.953125 0 -2.8125 -0.75q-0.84375 -0.75 -0.84375 -1.984375q0 -1.234375 0.84375 -1.984375q0.859375 -0.75 2.8125 -0.75l14.90625 0q2.015625 0 2.859375 0.75q0.84375 0.75 0.84375 1.984375q0 1.234375 -0.84375 1.984375q-0.84375 0.75 -2.859375 0.75l-6.125 0l21.09375 27.28125l20.96875 -27.28125l-6.125 0q-2.015625 0 -2.859375 -0.75q-0.84375 -0.75 -0.84375 -1.984375q0 -1.234375 0.84375 -1.984375q0.84375 -0.75 2.859375 -0.75l14.96875 0q1.953125 0 2.796875 0.75q0.859375 0.75 0.859375 1.984375q0 1.234375 -0.859375 1.984375q-0.84375 0.75 -2.796875 0.75l-2.078125 0l-24.34375 31.703125z" fill-rule="nonzero"/><path fill="#000000" d="m160.87732 695.3777l25.96875 33.53125l2.078125 0q1.953125 0 2.796875 0.75q0.859375 0.75 0.859375 1.984375q0 1.171875 -0.859375 1.953125q-0.84375 0.78125 -2.796875 0.78125l-17.5625 0q-1.953125 0 -2.8125 -0.78125q-0.84375 -0.78125 -0.84375 -1.953125q0 -1.234375 0.84375 -1.984375q0.859375 -0.75 2.8125 -0.75l8.71875 0l-22.59375 -29.03125l-22.328125 29.03125l8.71875 0q1.953125 0 2.796875 0.75q0.859375 0.75 0.859375 1.984375q0 1.171875 -0.859375 1.953125q-0.84375 0.78125 -2.796875 0.78125l-17.4375 0q-1.953125 0 -2.8125 -0.78125q-0.84375 -0.78125 -0.84375 -1.953125q0 -0.90625 0.515625 -1.625q0.53125 -0.71875 1.171875 -0.90625q0.65625 -0.203125 3.984375 -0.203125l25.640625 -33.53125l-24.46875 -31.703125l-2.015625 0q-1.953125 0 -2.8125 -0.75q-0.84375 -0.75 -0.84375 -1.984375q0 -1.234375 0.84375 -1.984375q0.859375 -0.75 2.8125 -0.75l14.90625 0q2.015625 0 2.859375 0.75q0.84375 0.75 0.84375 1.984375q0 1.234375 -0.84375 1.984375q-0.84375 0.75 -2.859375 0.75l-6.125 0l21.09375 27.28125l20.96875 -27.28125l-6.125 0q-2.015625 0 -2.859375 -0.75q-0.84375 -0.75 -0.84375 -1.984375q0 -1.234375 0.84375 -1.984375q0.84375 -0.75 2.859375 -0.75l14.96875 0q1.953125 0 2.796875 0.75q0.859375 0.75 0.859375 1.984375q0 1.234375 -0.859375 1.984375q-0.84375 0.75 -2.796875 0.75l-2.078125 0l-24.34375 31.703125zm80.0099 0l25.968735 33.53125l2.078125 0q1.953125 0 2.796875 0.75q0.859375 0.75 0.859375 1.984375q0 1.171875 -0.859375 1.953125q-0.84375 0.78125 -2.796875 0.78125l-17.562485 0q-1.953125 0 -2.8125 -0.78125q-0.84375 -0.78125 -0.84375 -1.953125q0 -1.234375 0.84375 -1.984375q0.859375 -0.75 2.8125 -0.75l8.718735 0l-22.593735 -29.03125l-22.328125 29.03125l8.71875 0q1.953125 0 2.796875 0.75q0.859375 0.75 0.859375 1.984375q0 1.171875 -0.859375 1.953125q-0.84375 0.78125 -2.796875 0.78125l-17.4375 0q-1.953125 0 -2.8125 -0.78125q-0.84375 -0.78125 -0.84375 -1.953125q0 -0.90625 0.515625 -1.625q0.53125 -0.71875 1.171875 -0.90625q0.65625 -0.203125 3.984375 -0.203125l25.640625 -33.53125l-24.46875 -31.703125l-2.015625 0q-1.953125 0 -2.8125 -0.75q-0.84375 -0.75 -0.84375 -1.984375q0 -1.234375 0.84375 -1.984375q0.859375 -0.75 2.8125 -0.75l14.90625 0q2.015625 0 2.859375 0.75q0.84375 0.75 0.84375 1.984375q0 1.234375 -0.84375 1.984375q-0.84375 0.75 -2.859375 0.75l-6.125 0l21.09375 27.28125l20.968735 -27.28125l-6.1249847 0q-2.015625 0 -2.859375 -0.75q-0.84375 -0.75 -0.84375 -1.984375q0 -1.234375 0.84375 -1.984375q0.84375 -0.75 2.859375 -0.75l14.968735 0q1.953125 0 2.796875 0.75q0.859375 0.75 0.859375 1.984375q0 1.234375 -0.859375 1.984375q-0.84375 0.75 -2.796875 0.75l-2.078125 0l-24.343735 31.703125zm104.61928 -2.59375l0 7.8125l-55.796875 0l0 -7.8125l55.796875 0zm80.00992 0l0 7.8125l-55.796875 0l0 -7.8125l55.796875 0zm80.00989 0l0 7.8125l-55.796875 0l0 -7.8125l55.796875 0zm80.00989 0l0 7.8125l-55.796875 0l0 -7.8125l55.796875 0zm80.00989 0l0 7.8125l-55.796875 0l0 -7.8125l55.796875 0zm55.400513 2.59375l25.96875 33.53125l2.078125 0q1.953125 0 2.796875 0.75q0.859375 0.75 0.859375 1.984375q0 1.171875 -0.859375 1.953125q-0.84375 0.78125 -2.796875 0.78125l-17.5625 0q-1.953125 0 -2.8125 -0.78125q-0.84375 -0.78125 -0.84375 -1.953125q0 -1.234375 0.84375 -1.984375q0.859375 -0.75 2.8125 -0.75l8.71875 0l-22.59375 -29.03125l-22.328125 29.03125l8.71875 0q1.953125 0 2.796875 0.75q0.859375 0.75 0.859375 1.984375q0 1.171875 -0.859375 1.953125q-0.84375 0.78125 -2.796875 0.78125l-17.4375 0q-1.953125 0 -2.8125 -0.78125q-0.84375 -0.78125 -0.84375 -1.953125q0 -0.90625 0.515625 -1.625q0.53125 -0.71875 1.171875 -0.90625q0.65625 -0.203125 3.984375 -0.203125l25.640625 -33.53125l-24.46875 -31.703125l-2.015625 0q-1.953125 0 -2.8125 -0.75q-0.84375 -0.75 -0.84375 -1.984375q0 -1.234375 0.84375 -1.984375q0.859375 -0.75 2.8125 -0.75l14.90625 0q2.015625 0 2.859375 0.75q0.84375 0.75 0.84375 1.984375q0 1.234375 -0.84375 1.984375q-0.84375 0.75 -2.859375 0.75l-6.125 0l21.09375 27.28125l20.96875 -27.28125l-6.125 0q-2.015625 0 -2.859375 -0.75q-0.84375 -0.75 -0.84375 -1.984375q0 -1.234375 0.84375 -1.984375q0.84375 -0.75 2.859375 -0.75l14.96875 0q1.953125 0 2.796875 0.75q0.859375 0.75 0.859375 1.984375q0 1.234375 -0.859375 1.984375q-0.84375 0.75 -2.796875 0.75l-2.078125 0l-24.34375 31.703125zm104.61926 -2.59375l0 7.8125l-55.796875 0l0 -7.8125l55.796875 0zm85.54114 3.703125q0 10.9375 -4.4375 20.28125q-4.421875 9.34375 -12.203125 14.546875q-7.78125 5.203125 -16.6875 5.203125q-13.21875 0 -23.28125 -11.21875q-10.0625 -11.234375 -10.0625 -28.8125q0 -17.640625 10.0625 -28.828125q10.0625 -11.203125 23.28125 -11.203125q8.90625 0 16.65625 5.203125q7.75 5.203125 12.203125 14.515625q4.46875 9.3125 4.46875 20.3125zm-5.53125 0q0 -13.34375 -7.75 -23.953125q-7.75 -10.609375 -20.046875 -10.609375q-11.53125 0 -19.703125 10.125q-8.171875 10.109375 -8.171875 24.4375q0 15.234375 8.5625 24.90625q8.5625 9.671875 19.3125 9.671875q12.296875 0 20.046875 -10.578125q7.75 -10.59375 7.75 -24.0z" fill-rule="nonzero"/><path fill="#000000" d="m185.4867 780.78394l0 7.8125l-55.796875 0l0 -7.8125l55.796875 0zm80.00989 0l0 7.8125l-55.79686 0l0 -7.8125l55.79686 0zm80.00992 0l0 7.8125l-55.796875 0l0 -7.8125l55.796875 0zm80.00992 0l0 7.8125l-55.796875 0l0 -7.8125l55.796875 0zm80.00989 0l0 7.8125l-55.796875 0l0 -7.8125l55.796875 0zm80.00989 0l0 7.8125l-55.796875 0l0 -7.8125l55.796875 0zm80.00989 0l0 7.8125l-55.796875 0l0 -7.8125l55.796875 0zm80.00989 0l0 7.8125l-55.796875 0l0 -7.8125l55.796875 0zm80.00989 0l0 7.8125l-55.796875 0l0 -7.8125l55.796875 0zm80.00989 0l0 7.8125l-55.796875 0l0 -7.8125l55.796875 0z" fill-rule="nonzero"/><path fill="#000000" d="m185.4867 868.78394l0 7.8125l-55.796875 0l0 -7.8125l55.796875 0zm80.00989 0l0 7.8125l-55.79686 0l0 -7.8125l55.79686 0zm80.00992 0l0 7.8125l-55.796875 0l0 -7.8125l55.796875 0zm80.00992 0l0 7.8125l-55.796875 0l0 -7.8125l55.796875 0zm85.54114 3.703125q0 10.9375 -4.4375 20.28125q-4.421875 9.34375 -12.203125 14.546875q-7.78125 5.203125 -16.6875 5.203125q-13.21875 0 -23.28125 -11.21875q-10.0625 -11.234375 -10.0625 -28.8125q0 -17.640625 10.0625 -28.828125q10.0625 -11.203125 23.28125 -11.203125q8.90625 0 16.65625 5.203125q7.75 5.203125 12.203125 14.515625q4.46875 9.3125 4.46875 20.3125zm-5.53125 0q0 -13.34375 -7.75 -23.953125q-7.75 -10.609375 -20.046875 -10.609375q-11.53125 0 -19.703125 10.125q-8.171875 10.109375 -8.171875 24.4375q0 15.234375 8.5625 24.90625q8.5625 9.671875 19.3125 9.671875q12.296875 0 20.046875 -10.578125q7.75 -10.59375 7.75 -24.0zm85.54114 0q0 10.9375 -4.4375 20.28125q-4.421875 9.34375 -12.203125 14.546875q-7.78125 5.203125 -16.6875 5.203125q-13.21875 0 -23.28125 -11.21875q-10.0625 -11.234375 -10.0625 -28.8125q0 -17.640625 10.0625 -28.828125q10.0625 -11.203125 23.28125 -11.203125q8.90625 0 16.65625 5.203125q7.75 5.203125 12.203125 14.515625q4.46875 9.3125 4.46875 20.3125zm-5.53125 0q0 -13.34375 -7.75 -23.953125q-7.75 -10.609375 -20.046875 -10.609375q-11.53125 0 -19.703125 10.125q-8.171875 10.109375 -8.171875 24.4375q0 15.234375 8.5625 24.90625q8.5625 9.671875 19.3125 9.671875q12.296875 0 20.046875 -10.578125q7.75 -10.59375 7.75 -24.0zm85.54114 0q0 10.9375 -4.4375 20.28125q-4.421875 9.34375 -12.203125 14.546875q-7.78125 5.203125 -16.6875 5.203125q-13.21875 0 -23.28125 -11.21875q-10.0625 -11.234375 -10.0625 -28.8125q0 -17.640625 10.0625 -28.828125q10.0625 -11.203125 23.28125 -11.203125q8.90625 0 16.65625 5.203125q7.75 5.203125 12.203125 14.515625q4.46875 9.3125 4.46875 20.3125zm-5.53125 0q0 -13.34375 -7.75 -23.953125q-7.75 -10.609375 -20.046875 -10.609375q-11.53125 0 -19.703125 10.125q-8.171875 10.109375 -8.171875 24.4375q0 15.234375 8.5625 24.90625q8.5625 9.671875 19.3125 9.671875q12.296875 0 20.046875 -10.578125q7.75 -10.59375 7.75 -24.0zm85.54114 0q0 10.9375 -4.4375 20.28125q-4.421875 9.34375 -12.203125 14.546875q-7.78125 5.203125 -16.6875 5.203125q-13.21875 0 -23.28125 -11.21875q-10.0625 -11.234375 -10.0625 -28.8125q0 -17.640625 10.0625 -28.828125q10.0625 -11.203125 23.28125 -11.203125q8.90625 0 16.65625 5.203125q7.75 5.203125 12.203125 14.515625q4.46875 9.3125 4.46875 20.3125zm-5.53125 0q0 -13.34375 -7.75 -23.953125q-7.75 -10.609375 -20.046875 -10.609375q-11.53125 0 -19.703125 10.125q-8.171875 10.109375 -8.171875 24.4375q0 15.234375 8.5625 24.90625q8.5625 9.671875 19.3125 9.671875q12.296875 0 20.046875 -10.578125q7.75 -10.59375 7.75 -24.0zm85.54114 0q0 10.9375 -4.4375 20.28125q-4.421875 9.34375 -12.203125 14.546875q-7.78125 5.203125 -16.6875 5.203125q-13.21875 0 -23.28125 -11.21875q-10.0625 -11.234375 -10.0625 -28.8125q0 -17.640625 10.0625 -28.828125q10.0625 -11.203125 23.28125 -11.203125q8.90625 0 16.65625 5.203125q7.75 5.203125 12.203125 14.515625q4.46875 9.3125 4.46875 20.3125zm-5.53125 0q0 -13.34375 -7.75 -23.953125q-7.75 -10.609375 -20.046875 -10.609375q-11.53125 0 -19.703125 10.125q-8.171875 10.109375 -8.171875 24.4375q0 15.234375 8.5625 24.90625q8.5625 9.671875 19.3125 9.671875q12.296875 0 20.046875 -10.578125q7.75 -10.59375 7.75 -24.0zm85.54114 0q0 10.9375 -4.4375 20.28125q-4.421875 9.34375 -12.203125 14.546875q-7.78125 5.203125 -16.6875 5.203125q-13.21875 0 -23.28125 -11.21875q-10.0625 -11.234375 -10.0625 -28.8125q0 -17.640625 10.0625 -28.828125q10.0625 -11.203125 23.28125 -11.203125q8.90625 0 16.65625 5.203125q7.75 5.203125 12.203125 14.515625q4.46875 9.3125 4.46875 20.3125zm-5.53125 0q0 -13.34375 -7.75 -23.953125q-7.75 -10.609375 -20.046875 -10.609375q-11.53125 0 -19.703125 10.125q-8.171875 10.109375 -8.171875 24.4375q0 15.234375 8.5625 24.90625q8.5625 9.671875 19.3125 9.671875q12.296875 0 20.046875 -10.578125q7.75 -10.59375 7.75 -24.0z" fill-rule="nonzero"/></g></svg>