<svg version="1.1" viewBox="0.0 0.0 1035.259842519685 975.9553805774278" fill="none" stroke="none" stroke-linecap="square" stroke-miterlimit="10" xmlns:xlink="http://www.w3.org/1999/xlink" xmlns="http://www.w3.org/2000/svg"><clipPath id="p.0"><path d="m0 0l1035.2599 0l0 975.9554l-1035.2599 0l0 -975.9554z" clip-rule="nonzero"/></clipPath><g clip-path="url(#p.0)"><path fill="#000000" fill-opacity="0.0" d="m0 0l1035.2599 0l0 975.9554l-1035.2599 0z" fill-rule="evenodd"/><path fill="#000000" fill-opacity="0.0" d="m311.78018 899.6516l-36.94034 -124.8468l0 0c-221.6595 -83.377014 -312.02792 -265.36508 -208.77335 -420.43738c103.254555 -155.07228 366.34012 -232.47855 607.79266 -178.82756c241.45251 53.650986 382.2522 220.80092 325.28204 386.15765c-56.970154 165.35675 -293.0656 274.8042 -545.43884 252.85071z" fill-rule="evenodd"/><path stroke="#000000" stroke-width="24.0" stroke-linejoin="round" stroke-linecap="butt" d="m311.78018 899.6516l-36.94034 -124.8468l0 0c-221.6595 -83.377014 -312.02792 -265.36508 -208.77335 -420.43738c103.254555 -155.07228 366.34012 -232.47855 607.79266 -178.82756c241.45251 53.650986 382.2522 220.80092 325.28204 386.15765c-56.970154 165.35675 -293.0656 274.8042 -545.43884 252.85071z" fill-rule="evenodd"/><path fill="#000000" d="m211.94489 346.40158l0 0c0 -8.262543 6.698105 -14.960632 14.960632 -14.960632l581.4488 0c3.9678345 0 7.7731323 1.5762024 10.578796 4.3818665c2.805664 2.805664 4.381836 6.610962 4.381836 10.578766l0 0l0 0c0 8.262512 -6.698059 14.960632 -14.960632 14.960632l-581.4488 0c-8.262527 0 -14.960632 -6.69812 -14.960632 -14.960632z" fill-rule="evenodd"/><path fill="#000000" d="m235.94489 400.32285l0 0c0 -8.262543 6.698105 -14.960632 14.960632 -14.960632l581.4488 0c3.9678345 0 7.7731323 1.5762024 10.578796 4.3818665c2.805664 2.805664 4.381836 6.610962 4.381836 10.578766l0 0l0 0c0 8.262512 -6.698059 14.960632 -14.960632 14.960632l-581.4488 0c-8.262527 0 -14.960632 -6.69812 -14.960632 -14.960632z" fill-rule="evenodd"/><path fill="#000000" d="m211.94489 454.24408l0 0c0 -8.262512 6.698105 -14.960602 14.960632 -14.960602l581.4488 0c3.9678345 0 7.7731323 1.5762024 10.578796 4.3818665c2.805664 2.805664 4.381836 6.6109314 4.381836 10.578735l0 0l0 0c0 8.262543 -6.698059 14.960632 -14.960632 14.960632l-581.4488 0c-8.262527 0 -14.960632 -6.6980896 -14.960632 -14.960632z" fill-rule="evenodd"/><path fill="#000000" d="m187.94489 508.16534l0 0c0 -8.262512 6.698105 -14.960632 14.960632 -14.960632l581.4488 0c3.9678345 0 7.7731323 1.5762024 10.578796 4.3818665c2.805664 2.805664 4.381836 6.610962 4.381836 10.578766l0 0l0 0c0 8.262512 -6.698059 14.960632 -14.960632 14.960632l-581.4488 0c-8.262527 0 -14.960632 -6.69812 -14.960632 -14.960632z" fill-rule="evenodd"/><path fill="#000000" d="m211.94489 562.0866l0 0c0 -8.262512 6.698105 -14.960632 14.960632 -14.960632l581.4488 0c3.9678345 0 7.7731323 1.5762329 10.578796 4.381897c2.805664 2.805664 4.381836 6.610962 4.381836 10.578735l0 0l0 0c0 8.262512 -6.698059 14.960632 -14.960632 14.960632l-581.4488 0c-8.262527 0 -14.960632 -6.69812 -14.960632 -14.960632z" fill-rule="evenodd"/><path fill="#000000" d="m517.8924 656.0079l0 0c0 -8.262512 6.69812 -14.960632 14.960632 -14.960632l198.17322 0c3.9678345 0 7.7731323 1.5762329 10.578735 4.381897c2.805664 2.805664 4.381897 6.610901 4.381897 10.578735l0 0l0 0c0 8.262512 -6.69812 14.960632 -14.960632 14.960632l-198.17322 0l0 0c-8.262512 0 -14.960632 -6.69812 -14.960632 -14.960632z" fill-rule="evenodd"/></g></svg>