<svg version="1.1" viewBox="0.0 0.0 1035.259842519685 975.9553805774278" fill="none" stroke="none" stroke-linecap="square" stroke-miterlimit="10" xmlns:xlink="http://www.w3.org/1999/xlink" xmlns="http://www.w3.org/2000/svg"><clipPath id="p.0"><path d="m0 0l1035.2599 0l0 975.9554l-1035.2599 0l0 -975.9554z" clip-rule="nonzero"/></clipPath><g clip-path="url(#p.0)"><path fill="#000000" fill-opacity="0.0" d="m0 0l1035.2599 0l0 975.9554l-1035.2599 0z" fill-rule="evenodd"/><path fill="#000000" d="m9.98294 870.7577l97.196846 0l0 97.1969l-97.196846 0z" fill-rule="evenodd"/><path fill="#000000" d="m111.99351 773.55884l97.196846 0l0 194.39368l-97.196846 0z" fill-rule="evenodd"/><path fill="#000000" d="m214.00407 679.3646l97.19685 0l0 288.5984l-97.19685 0z" fill-rule="evenodd"/><path fill="#000000" d="m316.0174 579.1524l97.19687 0l0 388.8189l-97.19687 0z" fill-rule="evenodd"/><path fill="#000000" d="m418.02798 483.4602l97.19681 0l0 484.50397l-97.19681 0z" fill-rule="evenodd"/><path fill="#000000" d="m928.0808 295.06482l97.1969 0l0 672.8819l-97.1969 0z" fill-rule="evenodd"/><path fill="#000000" d="m826.07025 199.39816l97.19684 0l0 768.5669l-97.19684 0z" fill-rule="evenodd"/><path fill="#000000" d="m520.0385 105.20955l97.1969 0l0 862.77167l-97.1969 0z" fill-rule="evenodd"/><path fill="#000000" d="m622.04913 390.76553l97.19684 0l0 577.1969l-97.19684 0z" fill-rule="evenodd"/><path fill="#000000" d="m724.0597 7.973703l97.19684 0l0 959.9685l-97.19684 0z" fill-rule="evenodd"/></g></svg>